<svg aria-label="" role="presentation" aria-hidden="true" preserveAspectRatio="xMidYMid meet" data-type="color" viewBox="20 22.5 160.1 155.1" xmlns:xlink="http://www.w3.org/1999/xlink" xmlns="http://www.w3.org/2000/svg" data-bbox="20 22.5 160.1 155.1" width="160.1"  height="155.1" ><g className="_svgImageSource_16ugp_7" data-type="color"><g>
        <path d="M135.1 127.4v37.9c0 5.4-4.4 9.7-9.8 9.7H32.2c-5.4 0-9.8-4.4-9.8-9.7V34.7c0-5.4 4.4-9.7 9.8-9.7h93.2c5.4 0 9.8 4.4 9.8 9.7v63.7L97 136.5l1.4 13.2 13.2 1.4 23.7-23.6Z" fill="#F6F9FB" data-color="1"></path>
        <path d="M125.4 177.5H32.2c-6.7 0-12.2-5.5-12.2-12.2V34.7c0-6.7 5.5-12.2 12.2-12.2h93.2c6.7 0 12.2 5.5 12.2 12.2v63.7c0 1.3-1.1 2.4-2.4 2.4s-2.4-1.1-2.4-2.4V34.7c0-4-3.3-7.3-7.3-7.3H32.2c-4 0-7.3 3.3-7.3 7.3v130.7c0 4 3.3 7.3 7.3 7.3h93.2c4 0 7.3-3.3 7.3-7.3v-37.9c0-1.3 1.1-2.4 2.4-2.4s2.4 1.1 2.4 2.4v37.9c0 6.7-5.5 12.2-12.2 12.2Z" fill="#D18415" data-color="2"></path>
        <path d="M111.5 153.4c-.6 0-1.2-.2-1.7-.7-.9-.9-.9-2.5 0-3.4l64.8-64.6q.6-.6.6-1.5c0-.9-.2-1.1-.6-1.5l-8.2-8.2c-.8-.8-2.1-.8-2.9 0l-64.8 64.6c-.9.9-2.5.9-3.4 0s-.9-2.5 0-3.4l64.8-64.6c2.7-2.7 7.1-2.7 9.8 0l8.2 8.2c1.3 1.3 2 3 2 4.9s-.7 3.6-2 4.9l-64.8 64.6c-.5.5-1.1.7-1.7.7Z" fill="#D18415" data-color="2"></path>
        <path d="M169.9 95.2c-.6 0-1.2-.2-1.7-.7L153.6 80c-.9-.9-.9-2.5 0-3.4s2.5-.9 3.4 0l14.6 14.5c.9.9.9 2.5 0 3.4-.5.5-1.1.7-1.7.7" fill="#D18415" data-color="2"></path>
        <path d="M111.5 153.4h-.3L98 152c-1.3-.1-2.3-1.3-2.2-2.7.1-1.3 1.3-2.3 2.7-2.2l13.2 1.4c1.3.1 2.3 1.3 2.2 2.7-.1 1.2-1.2 2.2-2.4 2.2" fill="#D18415" data-color="2"></path>
        <path d="M98.3 152.1c-1.2 0-2.3-.9-2.4-2.2l-1.4-13.2c-.1-1.3.8-2.5 2.2-2.7 1.3-.1 2.5.8 2.7 2.2l1.4 13.2c.1 1.3-.8 2.5-2.2 2.7z" fill="#D18415" data-color="2"></path>
        <path d="M94.4 52.2H63.5c-1.3 0-2.4-1.1-2.4-2.4s1.1-2.4 2.4-2.4h30.9c1.3 0 2.4 1.1 2.4 2.4s-1.1 2.4-2.4 2.4" fill="#D18415" data-color="2"></path>
        <path d="M110.5 70.5h-63c-1.3 0-2.4-1.1-2.4-2.4s1.1-2.4 2.4-2.4h63c1.3 0 2.4 1.1 2.4 2.4s-1.1 2.4-2.4 2.4" fill="#D18415" data-color="2"></path>
        <path d="M110.5 88.8h-63c-1.3 0-2.4-1.1-2.4-2.4s1.1-2.4 2.4-2.4h63c1.3 0 2.4 1.1 2.4 2.4s-1.1 2.4-2.4 2.4" fill="#D18415" data-color="2"></path>
    </g></g></svg>