<svg aria-label="" role="presentation" aria-hidden="true" preserveAspectRatio="xMidYMid meet" data-type="color" viewBox="30.9 34.4 138.2 131.2" xmlns:xlink="http://www.w3.org/1999/xlink" xmlns="http://www.w3.org/2000/svg" data-bbox="30.9 34.4 138.2 131.2" width="138.2"  height="131.2" ><g className="_svgImageSource_16ugp_7" data-type="color"><g>
        <path d="M109.3 47.1c-1 0-1.8-.8-1.8-1.8v-9.1c0-1 .8-1.8 1.8-1.8s1.8.8 1.8 1.8v9.1c0 1-.8 1.8-1.8 1.8zm59.8 95.4v21.3c0 1-.8 1.8-1.8 1.8H32.7c-1 0-1.8-.8-1.8-1.8v-21.3c0-1 .8-1.8 1.8-1.8h8.6l58.3-58.3C98 81.1 97 79.1 97 76.9v-5.3c0-1 .8-1.8 1.8-1.8s1.8.8 1.8 1.8V77c0 2 1.6 3.5 3.5 3.5 2 0 3.5-1.6 3.5-3.5V64.6c-.5-.2-.9-.6-1.3-1l-9.7-12.1c-.9-1.2-1.1-2.8-.5-4.1.7-1.4 2-2.2 3.5-2.2H119c1.5 0 2.9.8 3.5 2.2.7 1.4.5 3-.5 4.1l-9.7 12.1c-.4.4-.8.8-1.3 1V77c0 2.3-1.1 4.3-2.7 5.6l51.4 58.2h7.6c1-.1 1.8.7 1.8 1.7zM109 61.4c.1.1.2.1.3.1l10-12.3c.1-.1.1-.3 0-.4-.1-.1-.2-.2-.3-.2H99.6c-.2 0-.3.1-.3.2-.1.1-.1.3 0 .4l9.7 12.2zm-62.7 79.3h31.2v-15.9c0-1 .8-1.8 1.8-1.8h49.6c1 0 1.8.8 1.8 1.8v15.9H155L104.9 84c-.3 0-.6.1-.9.1s-.6-.1-.9-.1l-56.8 56.7zm80.7-14.1H81v14.2h46v-14.2zm38.5 17.7h-131V162h131.1v-17.7h-.1z" fill="#BD4F00" data-color="1"></path>
    </g></g></svg>