<svg aria-label="" role="presentation" aria-hidden="true" preserveAspectRatio="xMidYMid meet" data-type="color" viewBox="20 22.5 159.8 155.1" xmlns:xlink="http://www.w3.org/1999/xlink" xmlns="http://www.w3.org/2000/svg" data-bbox="20 22.5 159.8 155.1" width="159.8"  height="155.1" ><g className="_svgImageSource_16ugp_7" data-type="color"><g>
        <path d="m128.3 137.9.5-.6c5.3-6.6 8.1-14.5 8.1-22.9s-3.8-19-10.8-26c-7-6.9-16.2-10.7-26-10.7s-19.1 3.8-26 10.7c-7 6.9-10.8 16.2-10.8 26s3.8 19 10.8 26c7 6.9 16.2 10.8 26 10.8s16.4-2.8 23-8l.6-.5 35 34.9 4.7-4.7-35-34.9Zm-7-2.2c-5.7 5.7-13.3 8.8-21.3 8.8s-15.6-3.1-21.3-8.8-8.8-13.2-8.8-21.3 3.1-15.6 8.8-21.3S92 84.3 100 84.3s15.6 3.1 21.3 8.8 8.8 13.2 8.8 21.3-3.1 15.6-8.8 21.3" fill="#FD8209" data-color="1"></path>
        <path d="M100 22.5c-3 0-5.9 1.2-8 3.3L20 97.6l4.7 4.7 13.4-13.4v87.2h98.7v-6.6H44.7V82.3l51.9-51.8c.9-.9 2.1-1.4 3.3-1.4 1.3 0 2.5.5 3.3 1.4l51.9 51.8v68.8h6.6V89l13.4 13.4 4.7-4.7L108 25.8c-2.1-2.1-5-3.3-8-3.3" fill="#FD8209" data-color="1"></path>
    </g></g></svg>