<svg aria-label="" role="presentation" aria-hidden="true" preserveAspectRatio="xMidYMid meet" data-type="color" viewBox="20 20 160 160" xmlns:xlink="http://www.w3.org/1999/xlink" xmlns="http://www.w3.org/2000/svg" data-bbox="20 20 160 160" width="160"  height="160" ><g className="_svgImageSource_16ugp_7" data-type="color"><g>
        <path d="M150.794 93.651a3.81 3.81 0 0 1-3.81-3.81c0-20.306-16.52-36.825-36.825-36.825a3.81 3.81 0 1 1 0-7.62c24.507 0 44.444 19.938 44.444 44.444a3.81 3.81 0 0 1-3.809 3.811z" fill="#E08313" data-color="1"></path>
        <path d="M130.476 93.651a3.81 3.81 0 0 1-3.81-3.81c0-9.103-7.406-16.508-16.508-16.508a3.81 3.81 0 1 1 0-7.62c13.304 0 24.127 10.823 24.127 24.127a3.809 3.809 0 0 1-3.809 3.811z" fill="#E08313" data-color="1"></path>
        <path d="M166.032 180H33.968C26.266 180 20 173.734 20 166.032V33.968C20 26.266 26.266 20 33.968 20h132.064C173.734 20 180 26.266 180 33.968v132.064c0 7.702-6.266 13.968-13.968 13.968zM33.968 27.619a6.356 6.356 0 0 0-6.349 6.349v132.064a6.356 6.356 0 0 0 6.349 6.349h132.064a6.356 6.356 0 0 0 6.349-6.349V33.968a6.356 6.356 0 0 0-6.349-6.349H33.968z" fill="#E08313" data-color="1"></path>
        <path d="M119.9 150.164c-2.76 0-5.669-.28-8.699-.847-10.289-1.927-20.687-7.128-27.134-13.576L64.26 115.934c-6.448-6.448-11.651-16.845-13.576-27.134-2.252-12.028.019-22.162 6.393-28.537l7.184-7.183a3.81 3.81 0 0 1 5.387 0l25.757 25.758a3.808 3.808 0 0 1 0 5.387l-7.183 7.183a6.31 6.31 0 0 0-1.862 4.49c0 1.694.661 3.288 1.862 4.489l11.391 11.392a6.314 6.314 0 0 0 4.49 1.862 6.31 6.31 0 0 0 4.489-1.862l7.184-7.184a3.81 3.81 0 0 1 5.387 0l25.758 25.758a3.81 3.81 0 0 1 0 5.388l-7.184 7.184c-4.769 4.767-11.642 7.239-19.837 7.239zM66.953 61.161l-4.49 4.49c-4.476 4.476-6.041 12.403-4.291 21.747 1.659 8.859 6.056 17.729 11.474 23.148l19.807 19.807c5.42 5.419 14.29 9.816 23.149 11.475 9.345 1.748 17.269.185 21.747-4.291l4.489-4.49-20.37-20.371-4.49 4.49a13.88 13.88 0 0 1-9.876 4.093 13.88 13.88 0 0 1-9.877-4.093l-11.391-11.392a13.875 13.875 0 0 1-4.094-9.876c0-3.73 1.453-7.238 4.094-9.877l4.489-4.489-20.37-20.371z" fill="#E08313" data-color="1"></path>
    </g></g></svg>