<svg aria-label="" role="presentation" aria-hidden="true" preserveAspectRatio="xMidYMid meet" data-type="color" viewBox="20 20 160 160" xmlns:xlink="http://www.w3.org/1999/xlink" xmlns="http://www.w3.org/2000/svg" data-bbox="20 20 160 160" width="160"  height="160" ><g className="_svgImageSource_16ugp_7" data-type="color"><g>
        <path d="m52.368 128.92-21.986-22.031 75.947-75.54a1.83 1.83 0 0 1 2.584.005 1.822 1.822 0 0 1-.006 2.58L35.55 106.899l16.827 16.862 73.359-72.966a1.83 1.83 0 0 1 2.584.005 1.822 1.822 0 0 1-.006 2.58l-75.946 75.54z" fill="#145A96" data-color="1"></path>
        <path d="M39.059 139.241h-.014a7.06 7.06 0 0 1-5.018-2.088l-11.959-11.984c-2.764-2.768-2.755-7.267.017-10.028l10.886-10.827 21.986 22.031-10.887 10.828a7.062 7.062 0 0 1-5.011 2.068zm-6.097-29.768-8.298 8.252a3.444 3.444 0 0 0-.007 4.868l11.959 11.985a3.427 3.427 0 0 0 2.435 1.014h.007c.918 0 1.781-.357 2.432-1.004l8.298-8.253-16.826-16.862z" fill="#145A96" data-color="1"></path>
        <path d="m128.223 54.337-2.04-.595c-9.834-2.855-17.624-10.756-20.327-20.62l-.454-1.657L139.219 20l-10.996 34.337zM109.89 33.798c2.587 7.429 8.513 13.384 15.949 16.004l7.693-24.019-23.642 8.015z" fill="#145A96" data-color="1"></path>
        <path d="M97.499 63.639a1.822 1.822 0 0 1-1.299-3.107l10.827-10.925a1.83 1.83 0 0 1 2.584-.014c.718.709.724 1.864.014 2.58L98.798 63.098a1.82 1.82 0 0 1-1.299.541z" fill="#145A96" data-color="1"></path>
        <path d="M180 180H21.598L180 21.857V180zm-149.581-3.648h145.926V30.664L30.419 176.352zm121.911-23.977H88.399l63.931-63.826v63.826zm-55.109-3.648h51.455V97.356l-51.455 51.371z" fill="#145A96" data-color="1"></path>
        <path d="M171.377 60.682h-4.341c-1.009 0-1.827-.817-1.827-1.824s.818-1.824 1.827-1.824h4.341c1.009 0 1.827.817 1.827 1.824s-.818 1.824-1.827 1.824z" fill="#145A96" data-color="1"></path>
        <path d="M171.377 73.317h-8.098c-1.009 0-1.827-.817-1.827-1.824s.818-1.824 1.827-1.824h8.098c1.009 0 1.827.817 1.827 1.824s-.818 1.824-1.827 1.824z" fill="#145A96" data-color="1"></path>
        <path d="M171.377 85.953h-4.341c-1.009 0-1.827-.817-1.827-1.824s.818-1.824 1.827-1.824h4.341c1.009 0 1.827.817 1.827 1.824s-.818 1.824-1.827 1.824z" fill="#145A96" data-color="1"></path>
        <path d="M171.377 98.587h-8.098c-1.009 0-1.827-.817-1.827-1.824s.818-1.824 1.827-1.824h8.098c1.009 0 1.827.817 1.827 1.824s-.818 1.824-1.827 1.824z" fill="#145A96" data-color="1"></path>
        <path d="M171.377 111.223h-4.341a1.825 1.825 0 1 1 0-3.648h4.341c1.009 0 1.827.817 1.827 1.824a1.826 1.826 0 0 1-1.827 1.824z" fill="#145A96" data-color="1"></path>
        <path d="M171.377 123.858h-8.098c-1.009 0-1.827-.817-1.827-1.824s.818-1.824 1.827-1.824h8.098c1.009 0 1.827.817 1.827 1.824s-.818 1.824-1.827 1.824z" fill="#145A96" data-color="1"></path>
        <path d="M171.377 136.493h-4.341a1.825 1.825 0 1 1 0-3.648h4.341a1.825 1.825 0 1 1 0 3.648z" fill="#145A96" data-color="1"></path>
        <path d="M171.377 149.128h-8.098a1.825 1.825 0 1 1 0-3.648h8.098c1.009 0 1.827.817 1.827 1.824a1.826 1.826 0 0 1-1.827 1.824z" fill="#145A96" data-color="1"></path>
        <path d="M171.377 161.763h-4.341a1.825 1.825 0 1 1 0-3.648h4.341a1.825 1.825 0 1 1 0 3.648z" fill="#145A96" data-color="1"></path>
    </g></g></svg>