<svg aria-label="" role="presentation" aria-hidden="true" preserveAspectRatio="xMidYMid meet" data-type="color" viewBox="25 24.967 150 150.033" xmlns:xlink="http://www.w3.org/1999/xlink" xmlns="http://www.w3.org/2000/svg" data-bbox="25 24.967 150 150.033" width="150"  height="150.033" ><g className="_svgImageSource_16ugp_7" data-type="color"><g>
        <path d="M117.4 134.9c0 1.3 1.1 2.5 2.5 2.5.5 0 2.9-.1 7.5-2.3 4.5 2.1 7 2.3 7.5 2.3 1.3 0 2.4-1.1 2.5-2.4 0-1.3-1.1-2.5-2.4-2.5 0 0-2.2-.1-6.5-2.3-.7-.3-1.5-.3-2.3 0-4.3 2.1-6.5 2.3-6.4 2.3-1.3-.1-2.4 1-2.4 2.4zM66 162.7c.3.2.5.4.8.5.3.1.7.2.9.2.3 0 .7-.1.9-.2.3-.2.6-.3.8-.5l5-4.9c1-1 1-2.6 0-3.5-1-1-2.6-1-3.5 0l-.8.7V60.2h86.5l-.8.7c-1 1-1 2.6 0 3.5.5.5 1.1.7 1.8.7s1.3-.2 1.8-.7l5-4.9c.3-.2.4-.5.5-.8.3-.6.3-1.3 0-1.9-.1-.3-.3-.6-.5-.8l-5-4.9c-1-1-2.6-1-3.5 0-1 1-1 2.6 0 3.5l.8.7h-89c-1.3 0-2.5 1.1-2.5 2.5V155l-.8-.7c-1-1-2.6-1-3.5 0-1 1-1 2.6 0 3.5l5.1 4.9zm48.9-43c0 1.3 1.1 2.5 2.5 2.5 1.3 0 2.5-1.1 2.5-2.5 1.3 0 2.5-1.1 2.5-2.5 0-1.3-1.1-2.5-2.5-2.5h-5c-1.3 0-2.5 1.1-2.5 2.5 0 1.3 1.2 2.5 2.5 2.5zm17.5 22.2c-.2-1.2-1.4-2.1-2.6-2.1h-4.9c-1.3 0-2.5 1.1-2.5 2.5 0 1.3 1.1 2.5 2.5 2.5h5c1.5 0 2.7-1.3 2.5-2.9zm2.5-22.2c0 1.3 1.1 2.5 2.5 2.5 1.3 0 2.5-1.1 2.5-2.5 1.3 0 2.5-1.1 2.5-2.5 0-1.3-1.1-2.5-2.5-2.5h-5c-1.3 0-2.5 1.1-2.5 2.5 0 1.3 1.1 2.5 2.5 2.5zm39.7 52.2c-.1-.6-3.3-14.5-32.5-14.5-1.3 0-2.5 1.1-2.5 2.5 0 .4-.2 9.9-12.5 9.9-12 0-12.5-9-12.5-10 0-1.3-1.1-2.5-2.5-2.5-29.3 0-32.4 14-32.5 14.5-.3 1.3.6 2.6 1.9 2.9s2.7-.6 3-1.8c0-.1 1.8-6.7 15.1-9.4v8.9c0 1.3 1.1 2.5 2.5 2.5 1.3 0 2.5-1.1 2.5-2.5v-9.7c1.6-.2 3.4-.3 5.3-.3 1 5.4 5.5 12.5 17.3 12.5s16.2-7.1 17.3-12.4c1.9.1 3.6.2 5.3.3v9.6c0 1.3 1.1 2.5 2.5 2.5 1.3 0 2.5-1.1 2.5-2.5v-8.8c13.3 2.7 15 9.2 15.1 9.3.3 1.2 1.3 2 2.4 2 .2 0 .3 0 .5-.1 1.3-.2 2.2-1.5 1.8-2.9zM62.5 45.1h100c4.1 0 7.5 3.4 7.5 7.5v105c0 1.3 1.1 2.5 2.5 2.5 1.3 0 2.5-1.1 2.5-2.5v-105c0-6.9-5.6-12.5-12.5-12.5h-100c-1.3 0-2.5 1.1-2.5 2.5-.1 1.3 1 2.5 2.5 2.5zM100 122c.3 4 1.3 13.1 5.4 19.3l.5.8c3.2 4.8 8.4 12.8 21.5 12.8s18.4-8 21.5-12.8l.5-.8c4.1-6.2 5.1-15.3 5.4-19.3 2.9-1 5.1-3.8 5.1-7.1v-4.4h2.5c1.3 0 2.5-1.1 2.5-2.5V97.9c0-.3-.1-.7-.2-1 0-.1-.1-.2-.2-.2-.1-.3-.3-.4-.4-.6-.1-.1-.2-.1-.3-.2-.2-.1-.3-.3-.5-.3-.1-.1-.3-.1-.4-.1-.2-.1-.3-.1-.6-.1-3.1-8.5-9.4-18.1-27.6-21.6v-1c0-1.4-1.1-2.5-2.5-2.5h-10c-1.4 0-2.5 1.1-2.5 2.5v1C104.5 76.5 95.5 86.6 92 95.4c-1.4 0-2.5 1.1-2.5 2.5 0 .3.1.4.1.6v9.4c0 1.3 1.1 2.5 2.5 2.5h2.5v4.6c.3 3.2 2.5 6 5.4 7zm54.9-7.3c0 1.3-1.1 2.5-2.5 2.5-1.3 0-2.5 1.1-2.5 2.5 0 .1-.1 11.8-4.6 18.6l-.6.8c-3 4.4-7 10.6-17.5 10.6s-14.5-6.1-17.5-10.6l-.6-.8c-4.5-6.8-4.5-18.5-4.5-18.6 0-1.3-1.1-2.5-2.5-2.5-1.3 0-2.5-1.1-2.5-2.5v-5h55.3v5zM95.4 99.6h9.3c1.3 0 2.5-1.1 2.5-2.5 0-1.3-1.1-2.5-2.5-2.5h-7c3.4-6.8 10.6-14.1 22-16.4v6.5c0 1.3 1.1 2.5 2.5 2.5 1.3 0 2.5-1.1 2.5-2.5v-9.3h5v9.3c0 1.3 1.1 2.5 2.5 2.5 1.3 0 2.5-1.1 2.5-2.5v-6.4c13.8 2.9 19.3 9.6 22.1 16.3h-7.1c-1.3 0-2.5 1.1-2.5 2.5 0 1.3 1.1 2.5 2.5 2.5h10.1v5H95.4v-5zm-20.1 72.5c-.2-1.2-1.4-2.1-2.6-2.1H40.1c-5.6 0-10-4.5-10-10s4.6-10 10-10c5.6 0 10 4.5 10 10 0 1.3 1.1 2.5 2.5 2.5 1.3 0 2.5-1.1 2.5-2.5V40.3c0-7.2-5.8-14.2-12.9-15.2C33 23.9 25 31 25 40v120c0 8.3 6.7 15 15 15h32.8c1.4 0 2.7-1.3 2.5-2.9zM30 39.5c0-5.6 4.6-10.1 10.1-10.1 5.6 0 10.1 4.6 10.1 10.1v109.8c-2.7-2.4-6.2-3.9-10.1-3.9s-7.4 1.4-10.1 3.9V39.5z" fill="#165C97" data-color="1"></path>
    </g></g></svg>