<svg aria-label="" role="presentation" aria-hidden="true" preserveAspectRatio="xMidYMid meet" data-type="color" viewBox="10 30 180 140" xmlns:xlink="http://www.w3.org/1999/xlink" xmlns="http://www.w3.org/2000/svg" data-bbox="10 30 180 140" width="182"  height="182" ><g className="_svgImageSource_16ugp_7" data-type="color"><g>
        <path fill="#FD8A19" d="M124.15 66.676L68.336 76.702l-2.522 4.826 57.639-10.885 54.74 41.073L48.64 158.204 19.338 89.946l23.936-5.04-.322-3.217L10 88.874 42.2 170 190 113.861l-65.85-47.185z" data-color="1"></path>
        <path d="M118.408 104.102s-11.109-2.52-7.138 7.131c0 0 4.776 6.81 2.522 15.71l17.496-5.791h-1.61c0-1.18.054-2.413.107-3.592l4.293.375a31.422 31.422 0 0 0-.107 2.252l32.683-10.831-17.979-16.622-1.556 1.072 1.61-1.072c-.054.054-2.576 1.823-3.864 3.056l-2.952-3.271a23.937 23.937 0 0 1 2.147-1.93l-11.377-9.491s-8.587 3.217-6.44 8.204c.054.108 6.87 10.832-7.835 14.8zm22.647-10.778l3.059 3.164a45.362 45.362 0 0 0-4.293 5.308l-3.542-2.574c1.395-2.091 3.059-4.075 4.776-5.898zm-5.474 7.025l3.596 2.413a36.133 36.133 0 0 0-3.059 6.113l-4.025-1.662c.966-2.307 2.093-4.666 3.488-6.864zm-3.864 8.15l4.079 1.501a31.514 31.514 0 0 0-1.556 6.649l-4.293-.536a37.305 37.305 0 0 1 1.77-7.614z" fill="#FD8A19" data-color="1"></path>
        <path d="M123.775 73.861s-29.249 4.504-60 11.475l-5.85 11.046s-3.596 4.987-8.962-1.769l-3.22-5.737-17.549 3.914 8.211 16.086s5.742 11.796 22.54 6.434c0 0 9.284-2.145 9.66-14.638s16.798-9.651 18.623-9.651c1.771 0 28.283 10.724 28.283.375s-2.522-11.421 5.742-14.316c.053-.002 8.264-1.075 2.522-3.219z" fill="#FD8A19" data-color="1"></path>
        <path d="M77.299 106.086s-1.073 16.515-13.256 17.748l-20.769.161 11.109 22.895 49.75-17.158s3.918-20.375-10.358-27.185c-.054-.054-13.632-5.791-16.476 3.539z" fill="#FD8A19" data-color="1"></path>
        <path d="M39.204 69.946s10.962 5.63 14.186 23.646c.591 3.164 2.203 0 2.203 0 1.558-14.638 12.789-24.075 12.789-24.075 3.654-1.93 6.018-5.791 6.018-10.188V41.421C74.401 35.113 69.283 30 62.97 30H43.864c-6.523 0-11.86 5.332-11.86 11.85v17.48c0 4.772 3.062 8.901 7.2 10.616zm.313-30.405c0-.803.643-1.498 1.5-1.498h24.371c.803 0 1.5.642 1.5 1.498v22.205c0 .803-.643 1.498-1.5 1.498H41.017c-.803 0-1.5-.642-1.5-1.498V39.541z" fill="#FD8A19" data-color="1"></path>
    </g></g></svg>