<svg aria-label="" role="presentation" aria-hidden="true" preserveAspectRatio="xMidYMid meet" data-type="color" viewBox="39.5 39.5 121 121" xmlns:xlink="http://www.w3.org/1999/xlink" xmlns="http://www.w3.org/2000/svg" data-bbox="39.5 39.5 121 121" width="121"  height="121" ><g className="_svgImageSource_16ugp_7" data-type="color"><g>
        <path d="M99.999 39.5C66.638 39.5 39.5 66.641 39.5 100s27.138 60.5 60.499 60.5c33.359 0 60.501-27.141 60.501-60.5s-27.142-60.5-60.501-60.5zm0 112.575c-28.714 0-52.076-23.36-52.076-52.075 0-28.714 23.362-52.075 52.076-52.075 28.716 0 52.076 23.361 52.076 52.075 0 28.715-23.36 52.075-52.076 52.075z" fill="#D78715" data-color="1"></path>
        <path fill="#D78715" d="M94.787 79.71l20.483 16.079H72.54v8.422h42.73l-20.483 16.082 5.203 6.627L134.278 100 99.99 73.084l-5.203 6.626z" data-color="1"></path>
    </g></g></svg>