<svg width="143" height="81" viewBox="0 0 143 81" fill="none" xmlns="http://www.w3.org/2000/svg">
<path d="M47.2314 27.9676C47.2503 27.9675 47.2692 27.9675 47.2887 27.9674C47.3518 27.9672 47.4149 27.9673 47.4781 27.9675C47.5239 27.9674 47.5697 27.9673 47.6154 27.9672C47.7149 27.9671 47.8144 27.9671 47.9139 27.9671C48.0618 27.9672 48.2097 27.9671 48.3576 27.967C48.6372 27.9667 48.9168 27.9666 49.1963 27.9667C49.4122 27.9667 49.6281 27.9667 49.844 27.9666C49.875 27.9666 49.9061 27.9666 49.9371 27.9666C49.9839 27.9666 50.0306 27.9665 50.0774 27.9665C50.512 27.9664 50.9467 27.9663 51.3814 27.9664C51.3977 27.9664 51.4141 27.9664 51.431 27.9664C51.514 27.9664 51.5971 27.9664 51.6801 27.9664C51.6966 27.9664 51.7131 27.9664 51.7301 27.9664C51.7634 27.9664 51.7968 27.9664 51.8301 27.9664C52.349 27.9665 52.8679 27.9664 53.3868 27.9661C53.97 27.9657 54.5531 27.9655 55.1362 27.9655C55.1984 27.9656 55.2606 27.9656 55.3228 27.9656C55.3381 27.9656 55.3534 27.9656 55.3691 27.9656C55.6002 27.9656 55.8313 27.9655 56.0623 27.9653C56.3251 27.965 56.5879 27.965 56.8507 27.9653C56.9977 27.9654 57.1447 27.9653 57.2918 27.9651C57.4016 27.9649 57.5114 27.965 57.6212 27.9653C57.6656 27.9653 57.71 27.9653 57.7544 27.9651C58.3404 27.9633 58.3404 27.9633 58.586 28.1904C58.939 28.5593 58.8752 29.4514 58.872 29.918C58.853 30.7524 58.4803 31.2115 57.8969 31.7702C57.7382 31.92 57.5749 32.0644 57.4103 32.2077C57.2787 32.3224 57.1499 32.4397 57.0226 32.5591C57.0135 32.5676 57.0045 32.5761 56.9951 32.5849C56.9495 32.6277 56.904 32.6705 56.8585 32.7134C56.5484 33.0053 56.2345 33.2927 55.9148 33.5741C55.8948 33.5918 55.8948 33.5918 55.8744 33.6098C55.8501 33.6313 55.8257 33.6527 55.8012 33.6741C55.7304 33.7367 55.668 33.8034 55.6065 33.8752C55.5556 33.9335 55.501 33.9879 55.4462 34.0425C55.434 34.0547 55.4218 34.0669 55.4092 34.0795C55.3687 34.1201 55.3281 34.1605 55.2875 34.201C55.2583 34.2302 55.2291 34.2594 55.1999 34.2887C55.1209 34.3677 55.0418 34.4467 54.9627 34.5257C54.8799 34.6083 54.7971 34.6911 54.7144 34.7738C54.5755 34.9126 54.4366 35.0514 54.2977 35.1902C54.1548 35.3329 54.0119 35.4757 53.869 35.6185C53.8602 35.6273 53.8513 35.6361 53.8423 35.6452C53.798 35.6894 53.7538 35.7336 53.7096 35.7778C53.3685 36.1187 53.0275 36.4594 52.6864 36.8002C52.5538 36.9326 52.5204 37.0005 52.5102 37.191C52.5082 37.2554 52.5082 37.2554 52.5371 37.3194C52.6015 37.3791 52.6692 37.4291 52.7529 37.4574C52.7836 37.4513 52.8142 37.4452 52.8457 37.4389C53.544 37.445 54.2423 37.4511 54.9618 37.4574C54.9618 45.8432 54.9618 54.2289 54.9618 62.8687C52.138 62.8687 49.3141 62.8687 46.4048 62.8687C46.4048 56.9209 46.4048 50.9731 46.4048 44.8451C39.74 44.8467 39.74 44.8467 33.0753 44.8488C33.0236 44.8489 32.9719 44.8489 32.9203 44.8489C32.9073 44.8489 32.8944 44.8489 32.881 44.8489C31.9667 44.8493 31.0525 44.8496 30.1382 44.8499C30.0507 44.8499 29.9632 44.85 29.8757 44.85C28.5224 44.8505 27.1691 44.8509 25.8158 44.8512C25.7942 44.8512 25.7942 44.8512 25.7722 44.8512C25.2933 44.8513 24.8144 44.8514 24.3355 44.8515C23.9028 44.8516 23.4701 44.8517 23.0374 44.8518C23.0161 44.8518 23.0161 44.8518 22.9943 44.8518C22.1043 44.852 21.2142 44.8523 20.3241 44.8526C20.3104 44.8526 20.2966 44.8526 20.2824 44.8526C19.6788 44.8529 19.0752 44.8531 18.4715 44.8534C18.2287 44.8535 17.9858 44.8536 17.743 44.8537C17.7027 44.8537 17.6625 44.8537 17.6222 44.8537C17.0061 44.854 16.39 44.8542 15.774 44.8542C15.7607 44.8542 15.7474 44.8542 15.7337 44.8543C15.5199 44.8543 15.3061 44.8543 15.0923 44.8543C14.4854 44.8544 13.8785 44.8545 13.2717 44.8547C13.2594 44.8548 13.247 44.8548 13.2344 44.8548C12.9778 44.8549 12.7213 44.855 12.4647 44.8552C12.3456 44.8552 12.2265 44.8553 12.1074 44.8554C12.0841 44.8554 12.0608 44.8554 12.0367 44.8554C11.6664 44.8556 11.2962 44.8556 10.9259 44.8556C10.5622 44.8555 10.1984 44.8556 9.8347 44.856C9.62123 44.8562 9.40775 44.8562 9.19428 44.856C9.05268 44.8559 8.91108 44.856 8.76948 44.8563C8.6891 44.8564 8.60871 44.8565 8.52833 44.8563C8.45539 44.8561 8.38245 44.8562 8.30951 44.8565C8.28336 44.8566 8.25721 44.8565 8.23106 44.8564C7.97813 44.8545 7.97813 44.8545 7.75884 44.9657C7.71457 45.0211 7.67421 45.0762 7.64747 45.1421C7.65359 45.1604 7.65972 45.1788 7.66603 45.1978C7.66773 45.2378 7.66826 45.2779 7.66821 45.318C7.66822 45.3303 7.66824 45.3427 7.66825 45.3554C7.66826 45.3971 7.66814 45.4388 7.66802 45.4806C7.668 45.5108 7.66799 45.541 7.66799 45.5712C7.66796 45.6548 7.66782 45.7384 7.66765 45.822C7.66749 45.9127 7.66744 46.0034 7.66737 46.0941C7.66725 46.2533 7.66705 46.4125 7.6668 46.5717C7.66644 46.8084 7.66619 47.0451 7.66596 47.2818C7.66556 47.68 7.66508 48.0781 7.66455 48.4762C7.66403 48.8706 7.66354 49.265 7.66311 49.6593C7.66308 49.6838 7.66306 49.7083 7.66303 49.7336C7.66292 49.833 7.66281 49.9324 7.6627 50.0318C7.66239 50.3098 7.66209 50.5877 7.66177 50.8656C7.66176 50.8783 7.66174 50.8909 7.66173 50.904C7.66103 51.5199 7.66027 52.1359 7.6595 52.7518C7.65923 52.9656 7.65896 53.1794 7.6587 53.3932C7.65868 53.4064 7.65866 53.4197 7.65865 53.4333C7.65788 54.0495 7.65717 54.6657 7.65646 55.2819C7.65642 55.3219 7.65637 55.3619 7.65633 55.4019C7.65602 55.667 7.65572 55.932 7.65542 56.1971C7.65482 56.7245 7.65421 57.2519 7.6536 57.7793C7.65357 57.8044 7.65354 57.8295 7.65352 57.8546C7.65202 59.1524 7.65044 60.4501 7.64885 61.7479C7.64883 61.766 7.64881 61.7841 7.64878 61.8027C7.64835 62.158 7.64791 62.5134 7.64747 62.8687C6.73478 62.8687 5.82209 62.8687 4.88174 62.8687C4.88129 61.9488 4.88129 61.9488 4.88112 61.5919C4.88111 61.5697 4.8811 61.5475 4.88109 61.5246C4.8804 60.0539 4.87978 58.5833 4.87938 57.1127C4.87938 57.084 4.87936 57.0553 4.87936 57.0266C4.87919 56.4248 4.87905 55.8229 4.87891 55.221C4.87884 54.9187 4.87876 54.6163 4.87869 54.314C4.87868 54.2684 4.87867 54.2228 4.87866 54.1772C4.87849 53.4749 4.87827 52.7726 4.87792 52.0703C4.8779 52.0477 4.8779 52.0477 4.87789 52.0246C4.87777 51.7811 4.87764 51.5377 4.87752 51.2942C4.87715 50.593 4.87681 49.8918 4.87666 49.1906C4.87666 49.1762 4.87666 49.1618 4.87666 49.1469C4.87659 48.8304 4.87654 48.5138 4.87651 48.1973C4.87649 48.0699 4.87647 47.9425 4.87646 47.8151C4.87645 47.8012 4.87645 47.7873 4.87645 47.7729C4.87639 47.3237 4.87615 46.8746 4.87582 46.4255C4.87549 45.973 4.87533 45.5206 4.87541 45.0681C4.87546 44.7873 4.87537 44.5066 4.87502 44.2258C4.87481 44.0468 4.8748 43.8677 4.87496 43.6887C4.87504 43.5866 4.87503 43.4845 4.87478 43.3824C4.87456 43.2895 4.87459 43.1967 4.87483 43.1038C4.87487 43.0704 4.87481 43.037 4.87465 43.0036C4.87337 42.7161 4.89727 42.4794 5.09984 42.2603C5.29219 42.0763 5.54395 42.0738 5.79579 42.0747C5.82469 42.0747 5.85359 42.0747 5.88249 42.0746C5.96209 42.0745 6.04168 42.0746 6.12128 42.0747C6.20813 42.0748 6.29498 42.0747 6.38182 42.0747C6.53468 42.0746 6.68754 42.0746 6.8404 42.0747C7.06924 42.0749 7.29807 42.0749 7.5269 42.0748C7.91687 42.0747 8.30682 42.0748 8.69679 42.0749C9.09209 42.0751 9.48739 42.0752 9.8827 42.0752C9.89516 42.0752 9.90762 42.0752 9.92046 42.0752C10.0347 42.0751 10.1489 42.0751 10.2631 42.0751C10.5495 42.0751 10.8359 42.0751 11.1223 42.0751C11.1354 42.0751 11.1485 42.0751 11.1621 42.0751C11.8092 42.0751 12.4564 42.0753 13.1035 42.0754C13.3314 42.0755 13.5592 42.0755 13.787 42.0756C13.8083 42.0756 13.8083 42.0756 13.83 42.0756C14.486 42.0757 15.142 42.0758 15.798 42.0758C15.8409 42.0758 15.8838 42.0758 15.9267 42.0758C16.1854 42.0758 16.4441 42.0759 16.7028 42.0759C17.3459 42.0759 17.9891 42.0759 18.6322 42.076C18.6468 42.076 18.6615 42.076 18.6766 42.076C19.6249 42.076 20.5732 42.0762 21.5215 42.0763C21.5366 42.0763 21.5518 42.0763 21.5674 42.0763C22.0283 42.0764 22.4892 42.0765 22.9501 42.0765C23.4601 42.0766 23.9702 42.0767 24.4802 42.0768C24.4956 42.0768 24.5109 42.0768 24.5267 42.0768C25.9834 42.0771 27.4401 42.0772 28.8967 42.0773C28.9584 42.0773 29.0201 42.0773 29.0818 42.0773C29.6496 42.0774 30.2174 42.0774 30.7851 42.0775C30.8002 42.0775 30.8153 42.0775 30.8309 42.0775C30.8766 42.0775 30.9223 42.0775 30.968 42.0775C32.2029 42.0776 33.4378 42.0777 34.6727 42.0778C34.7163 42.0778 34.7598 42.0778 34.8034 42.0778C36.2186 42.0779 37.6337 42.0781 42.6537 42.0788C42.6659 42.0788 42.6782 42.0788 42.6908 42.0788C43.9288 42.079 45.1668 42.0792 46.4048 42.0794C46.4048 41.8588 46.4048 41.6383 46.4048 41.4111C46.3125 41.4111 46.2202 41.4112 46.1252 41.4112C44.8842 41.4115 43.6433 41.4117 42.4024 41.412C42.3828 41.412 42.3828 41.412 42.3628 41.412C40.9579 41.4123 39.553 41.4126 33.9794 41.4135C33.9329 41.4135 33.8864 41.4135 33.8398 41.4135C32.5214 41.4137 31.2029 41.4138 29.8844 41.414C29.8356 41.414 29.7868 41.414 29.738 41.414C29.7219 41.414 29.7058 41.414 29.6892 41.414C29.0832 41.414 28.4771 41.4141 27.8711 41.4142C27.8053 41.4142 27.7394 41.4142 27.6736 41.4142C26.1192 41.4144 24.5648 41.4146 23.0104 41.4149C22.994 41.415 22.9777 41.415 22.9608 41.415C22.4167 41.4151 21.8725 41.4152 21.3284 41.4153C20.8368 41.4155 20.3451 41.4156 19.8535 41.4157C19.8373 41.4157 19.8212 41.4157 19.8045 41.4157C18.7932 41.4159 17.7818 41.4161 16.7704 41.4162C16.747 41.4162 16.747 41.4162 16.7231 41.4162C16.0372 41.4163 15.3513 41.4163 14.6654 41.4164C14.3895 41.4164 14.1135 41.4164 13.8376 41.4164C13.7918 41.4164 13.7461 41.4164 13.7003 41.4164C13.0003 41.4165 12.3003 41.4165 11.6003 41.4168C11.5852 41.4168 11.5701 41.4168 11.5545 41.4168C11.3116 41.4169 11.0686 41.4169 10.8257 41.417C10.1361 41.4173 9.4466 41.4175 8.75705 41.4175C8.74306 41.4175 8.72907 41.4175 8.71466 41.4175C8.40952 41.4175 8.10437 41.4175 7.79922 41.4174C7.67753 41.4174 7.55583 41.4174 7.43414 41.4174C7.42086 41.4174 7.40758 41.4174 7.39391 41.4174C6.97267 41.4174 6.55143 41.4175 6.13018 41.4178C5.70403 41.418 5.27788 41.4181 4.85173 41.4179C4.60918 41.4178 4.36662 41.4179 4.12407 41.4182C3.96316 41.4183 3.80226 41.4183 3.64136 41.4181C3.55003 41.418 3.45869 41.418 3.36736 41.4182C3.28447 41.4184 3.20159 41.4184 3.1187 41.4181C3.089 41.4181 3.05929 41.4181 3.02959 41.4183C2.80209 41.4194 2.57909 41.4094 2.39444 41.2626C2.38186 41.2528 2.36927 41.2429 2.3563 41.2328C2.22089 41.1132 2.14026 40.9479 2.12439 40.7685C2.11918 40.6704 2.12004 40.5723 2.12109 40.474C2.12111 40.4378 2.12109 40.4016 2.12104 40.3654C2.12104 40.2899 2.12142 40.2145 2.1221 40.139C2.12294 40.0428 2.12296 39.9465 2.12271 39.8502C2.12258 39.7756 2.12283 39.701 2.1232 39.6264C2.12334 39.5909 2.12338 39.5554 2.12332 39.5199C2.12322 39.1663 2.12322 39.1663 2.20882 39.0166C2.21954 38.9975 2.23026 38.9784 2.24131 38.9586C2.38773 38.7715 2.52971 38.6764 2.76568 38.6454C2.86666 38.6402 2.96748 38.6404 3.06855 38.6408C3.0994 38.6408 3.13025 38.6407 3.1611 38.6406C3.24604 38.6405 3.33097 38.6406 3.41591 38.6408C3.50859 38.6409 3.60128 38.6408 3.69397 38.6407C3.85709 38.6406 4.02021 38.6406 4.18334 38.6408C4.42754 38.641 4.67174 38.6409 4.91595 38.6409C5.3321 38.6407 5.74825 38.6408 6.1644 38.641C6.58624 38.6411 7.00809 38.6412 7.42993 38.6412C7.44988 38.6412 7.44989 38.6412 7.47024 38.6412C7.59212 38.6412 7.714 38.6412 7.83589 38.6412C8.14153 38.6412 8.44717 38.6412 8.75281 38.6412C8.76682 38.6412 8.78082 38.6412 8.79526 38.6412C9.48586 38.6412 10.1765 38.6413 10.8671 38.6415C11.1102 38.6415 11.3534 38.6416 11.5965 38.6416C11.6116 38.6416 11.6267 38.6416 11.6423 38.6416C12.3424 38.6418 13.0425 38.6418 13.7425 38.6419C13.7883 38.6419 13.8341 38.6419 13.8799 38.6419C14.1559 38.6419 14.432 38.6419 14.7081 38.6419C15.3944 38.6419 16.0807 38.642 16.7671 38.642C16.7905 38.642 16.7905 38.642 16.8144 38.642C17.8264 38.6421 18.8384 38.6422 19.8504 38.6424C19.8666 38.6424 19.8827 38.6424 19.8994 38.6424C20.3912 38.6424 20.8831 38.6425 21.3749 38.6426C21.9192 38.6427 22.4635 38.6428 23.0078 38.6428C23.0242 38.6429 23.0406 38.6429 23.0574 38.6429C24.6119 38.6431 26.1664 38.6432 27.7209 38.6434C27.7868 38.6434 27.8526 38.6434 27.9185 38.6434C28.5244 38.6434 29.1303 38.6435 29.7362 38.6435C29.7603 38.6435 29.7603 38.6435 29.785 38.6435C29.8338 38.6435 29.8825 38.6435 29.9313 38.6435C31.2492 38.6436 32.567 38.6437 33.8848 38.6438C33.9313 38.6438 33.9778 38.6438 34.0243 38.6438C35.5345 38.644 37.0447 38.6441 42.4018 38.6448C42.4148 38.6448 42.4279 38.6448 42.4414 38.6448C43.7625 38.645 45.0836 38.6452 46.4048 38.6454C46.4047 38.6241 46.4047 38.6028 46.4046 38.5808C46.4028 37.6416 46.4011 36.7023 46.4 35.763C46.4 35.7417 46.4 35.7417 46.4 35.7199C46.3997 35.4108 46.3993 35.1016 46.3991 34.7924C46.3989 34.6408 46.3988 34.4892 46.3986 34.3375C46.3986 34.3225 46.3986 34.3074 46.3986 34.2918C46.3981 33.803 46.3973 33.3141 46.3963 32.8253C46.3952 32.3229 46.3945 31.8204 46.3943 31.318C46.3943 31.247 46.3942 31.176 46.3942 31.1049C46.3942 31.091 46.3942 31.077 46.3942 31.0626C46.394 30.8379 46.3935 30.6131 46.3929 30.3884C46.3922 30.1623 46.3919 29.9363 46.3921 29.7102C46.3922 29.5877 46.3921 29.4653 46.3915 29.3429C46.3909 29.2307 46.3909 29.1185 46.3913 29.0064C46.3913 28.9659 46.3912 28.9254 46.3908 28.8849C46.3889 28.6416 46.3876 28.4063 46.5642 28.218C46.579 28.2043 46.5937 28.1906 46.6089 28.1765C46.62 28.1661 46.6311 28.1557 46.6425 28.145C46.8178 27.9912 47.0044 27.9665 47.2314 27.9676ZM52.4745 37.0676C52.4745 37.1105 52.4745 37.1534 52.4745 37.1976C52.4806 37.1976 52.4867 37.1976 52.4931 37.1976C52.4931 37.1547 52.4931 37.1118 52.4931 37.0676C52.4869 37.0676 52.4808 37.0676 52.4745 37.0676ZM7.87021 44.8451C7.94446 44.8636 7.94446 44.8636 7.94446 44.8636L7.87021 44.8451Z" fill="white"/>
<path d="M61.5427 19.6336C61.5618 19.6335 61.581 19.6335 61.6007 19.6334C61.6647 19.6333 61.7287 19.6334 61.7927 19.6335C61.8391 19.6334 61.8855 19.6333 61.9319 19.6333C62.0327 19.6331 62.1336 19.6331 62.2344 19.6331C62.3843 19.6332 62.5343 19.6331 62.6842 19.633C62.9676 19.6327 63.251 19.6327 63.5344 19.6327C63.7533 19.6327 63.9721 19.6327 64.191 19.6326C64.2224 19.6326 64.2539 19.6326 64.2853 19.6326C64.3327 19.6326 64.3801 19.6326 64.4275 19.6325C64.868 19.6324 65.3086 19.6323 65.7492 19.6324C65.7741 19.6324 65.7741 19.6324 65.7995 19.6324C65.8837 19.6324 65.9678 19.6324 66.052 19.6324C66.0771 19.6324 66.0771 19.6324 66.1027 19.6324C66.1365 19.6324 66.1703 19.6325 66.2041 19.6325C66.7301 19.6326 67.2561 19.6324 67.7821 19.6321C68.3732 19.6317 68.9642 19.6315 69.5553 19.6316C69.6183 19.6316 69.6813 19.6316 69.7443 19.6316C69.7676 19.6316 69.7676 19.6316 69.7914 19.6316C70.0256 19.6316 70.2598 19.6315 70.494 19.6313C70.7604 19.6311 71.0268 19.631 71.2932 19.6313C71.4422 19.6314 71.5913 19.6314 71.7403 19.6311C71.8516 19.6309 71.963 19.6311 72.0743 19.6313C72.1193 19.6313 72.1643 19.6313 72.2093 19.6311C72.8002 19.6293 72.8002 19.6293 73.0458 19.8564C73.2325 20.0516 73.2322 20.3086 73.2314 20.5633C73.2314 20.5934 73.2314 20.6235 73.2315 20.6536C73.2316 20.7365 73.2315 20.8195 73.2314 20.9024C73.2313 20.9929 73.2314 21.0833 73.2314 21.1738C73.2315 21.333 73.2315 21.4923 73.2314 21.6515C73.2312 21.8899 73.2312 22.1283 73.2313 22.3667C73.2314 22.773 73.2313 23.1792 73.2312 23.5855C73.231 23.9973 73.2309 24.4091 73.2309 24.821C73.2309 24.834 73.2309 24.8469 73.2309 24.8603C73.231 24.9793 73.231 25.0983 73.231 25.2172C73.231 25.5156 73.231 25.814 73.231 26.1123C73.231 26.126 73.231 26.1397 73.231 26.1538C73.231 26.828 73.2308 27.5022 73.2307 28.1763C73.2306 28.4137 73.2306 28.6511 73.2305 28.8885C73.2305 28.9032 73.2305 28.918 73.2305 28.9332C73.2304 29.6166 73.2303 30.3 73.2303 30.9835C73.2303 31.0281 73.2303 31.0728 73.2303 31.1175C73.2303 31.387 73.2302 31.6565 73.2302 31.926C73.2302 32.596 73.2302 33.266 73.2301 33.936C73.2301 33.9513 73.2301 33.9665 73.2301 33.9822C73.2301 34.9702 73.2299 35.9581 73.2298 36.946C73.2298 36.9618 73.2298 36.9776 73.2298 36.9938C73.2297 37.474 73.2296 37.9542 73.2296 38.4343C73.2295 38.9657 73.2294 39.4971 73.2293 40.0284C73.2293 40.0444 73.2293 40.0604 73.2293 40.0769C73.229 41.5944 73.2289 43.1119 73.2288 44.6295C73.2288 44.6937 73.2288 44.758 73.2288 44.8223C73.2287 45.4138 73.2287 46.0053 73.2286 46.5967C73.2286 46.6203 73.2286 46.6203 73.2286 46.6444C73.2286 46.692 73.2286 46.7396 73.2286 46.7873C73.2285 48.0737 73.2284 49.3602 73.2283 50.6467C73.2283 50.6921 73.2283 50.7375 73.2283 50.7829C73.2282 52.2579 73.228 53.7329 73.2277 56.3375C73.2277 56.3777 73.2277 56.4179 73.2277 56.458C73.2277 56.4712 73.2277 56.4843 73.2277 56.4979C73.2277 56.5333 73.2277 56.5686 73.2277 56.604C73.2274 58.6924 73.2271 60.7807 73.2267 62.869C70.3539 62.869 67.4811 62.869 64.5212 62.869C64.5212 54.4833 64.5212 46.0976 64.5212 37.4577C65.5778 37.4486 65.5778 37.4486 66.6558 37.4392C66.8459 37.3814 66.8459 37.3814 66.9528 37.2536C66.9836 37.1612 66.9929 37.0642 66.9549 36.9724C66.8762 36.8477 66.7693 36.7699 66.6498 36.6872C66.5986 36.6518 66.5479 36.6157 66.4972 36.5796C66.4696 36.5599 66.4419 36.5403 66.4142 36.5207C65.5151 35.8843 64.664 35.1899 63.8365 34.4634C63.7996 34.431 63.7627 34.3987 63.7258 34.3664C62.6616 33.435 61.5827 32.3965 60.3327 28.4703C60.2614 27.3665 60.2776 26.2644 60.3266 25.1602C60.3292 25.1001 60.3318 25.0401 60.3343 24.98C60.3962 23.5324 60.5034 22.0906 60.668 20.6509C60.67 20.6327 60.6721 20.6145 60.6742 20.5957C60.7453 19.9667 60.7453 19.9667 61.013 19.7497C61.1762 19.6517 61.3561 19.6327 61.5427 19.6336Z" fill="white"/>
<path d="M75.4727 39.0186C82.2568 39.0186 82.2568 39.0186 82.735 39.0986C82.7602 39.1027 82.7853 39.1068 82.8105 39.1109C83.9884 39.3055 85.0876 39.7608 85.9718 40.5748C86.0091 40.6087 86.0469 40.6417 86.085 40.6746C86.3021 40.8643 86.5049 41.0705 86.6759 41.3028C86.7061 41.3435 86.7369 41.3836 86.7678 41.4237C86.8401 41.5182 86.911 41.6138 86.9811 41.71C86.9973 41.7322 86.9973 41.7322 87.0138 41.7549C87.3089 42.1644 87.5408 42.6323 87.7236 43.1022C87.7309 43.121 87.7383 43.1399 87.7459 43.1594C88.0288 43.8891 88.2099 44.6334 88.3361 45.4039C88.3394 45.4239 88.3427 45.4439 88.3462 45.4645C88.4016 45.8061 88.4249 46.1539 88.4475 46.499C88.4497 46.5336 88.4497 46.5336 88.4521 46.5689C88.4649 46.7746 88.4687 46.9793 88.4685 47.1853C88.4685 47.2194 88.4686 47.2536 88.4686 47.2878C88.4688 47.3808 88.4688 47.4738 88.4687 47.5668C88.4687 47.6674 88.4688 47.7681 88.4689 47.8688C88.4691 48.0657 88.4691 48.2626 88.4691 48.4595C88.4691 48.6197 88.4692 48.78 88.4692 48.9402C88.4694 49.3956 88.4695 49.851 88.4695 50.3064C88.4695 50.3247 88.4695 50.3247 88.4695 50.3435C88.4695 50.3682 88.4695 50.393 88.4695 50.4178C88.4695 50.8273 88.4696 51.2368 88.4699 51.6464C88.4702 52.0552 88.4703 52.464 88.4703 52.8728C88.4703 53.102 88.4703 53.3311 88.4705 53.5602C88.4707 53.7553 88.4707 53.9504 88.4706 54.1456C88.4705 54.2449 88.4705 54.3442 88.4707 54.4435C88.4715 54.9787 88.463 55.5099 88.3895 56.041C88.3866 56.0622 88.3866 56.0622 88.3837 56.0838C88.3107 56.6225 88.2276 57.169 88.0762 57.6918C88.0696 57.7151 88.0629 57.7383 88.0561 57.7622C87.8721 58.4019 87.6473 59.0429 87.3152 59.6223C87.3047 59.6408 87.3047 59.6408 87.294 59.6598C87.1252 59.9576 86.9405 60.2448 86.734 60.5179C86.722 60.5338 86.71 60.5497 86.6977 60.5661C86.6292 60.6552 86.5572 60.7365 86.4761 60.8145C86.4429 60.8472 86.4126 60.8814 86.3825 60.917C86.2589 61.0604 86.1223 61.1946 85.9782 61.3171C85.9365 61.353 85.8962 61.3902 85.8558 61.4274C85.661 61.6026 85.4503 61.7576 85.2328 61.9031C85.221 61.911 85.2091 61.919 85.1969 61.9271C84.9711 62.0777 84.7389 62.1992 84.4904 62.3091C84.4455 62.3291 84.401 62.3496 84.3565 62.3706C83.8565 62.6039 83.3079 62.7199 82.7675 62.8149C82.743 62.8193 82.743 62.8193 82.718 62.8237C80.4046 63.2246 77.4033 62.9263 75.4727 62.9263C75.4727 55.0367 75.4727 47.1472 75.4727 39.0186ZM78.851 43.362C78.851 48.3849 78.851 53.4078 78.851 58.5828C80.9165 58.6955 80.9165 58.6955 82.9531 58.3044C82.9787 58.2946 82.9787 58.2946 83.0047 58.2846C83.3973 58.1316 83.6906 57.8803 83.9783 57.5775C84.0047 57.5501 84.0319 57.5235 84.0595 57.4972C84.8204 56.6991 84.98 55.4415 84.9789 54.3874C84.9789 54.3569 84.9789 54.3265 84.979 54.296C84.9791 54.2131 84.9791 54.1303 84.9791 54.0475C84.9791 53.9578 84.9792 53.868 84.9793 53.7783C84.9794 53.6029 84.9795 53.4274 84.9795 53.252C84.9795 53.1091 84.9795 52.9663 84.9796 52.8235C84.9798 52.4174 84.9798 52.0113 84.9798 51.6052C84.9798 51.5833 84.9798 51.5615 84.9798 51.539C84.9798 51.5171 84.9798 51.4952 84.9798 51.4727C84.9798 51.1188 84.98 50.7648 84.9803 50.4109C84.9805 50.0464 84.9807 49.6819 84.9806 49.3174C84.9806 49.1132 84.9807 48.909 84.9809 48.7048C84.9811 48.5309 84.9811 48.3569 84.981 48.1829C84.9809 48.0944 84.9809 48.0059 84.9811 47.9174C84.983 46.804 84.9144 45.6778 84.2896 44.7171C84.2762 44.6959 84.2762 44.6959 84.2625 44.6743C83.8508 44.0274 83.1821 43.6152 82.4424 43.4443C81.2865 43.196 79.9128 43.362 78.851 43.362Z" fill="white"/>
<path d="M123.492 39.0179C124.607 39.0179 125.722 39.0179 126.871 39.0179C126.877 42.9014 126.883 46.785 126.889 50.7862C127.34 49.8885 127.34 49.8885 127.78 48.9857C127.823 48.8981 127.867 48.8107 127.911 48.7235C127.922 48.701 127.933 48.6785 127.945 48.656C127.985 48.5748 128.026 48.4937 128.067 48.4126C128.107 48.3322 128.148 48.2517 128.188 48.1713C128.196 48.1544 128.196 48.1544 128.205 48.1371C128.287 47.9733 128.367 47.8085 128.446 47.6429C128.56 47.4031 128.68 47.1662 128.799 46.929C128.916 46.6966 129.033 46.4642 129.145 46.2292C129.267 45.9717 129.395 45.7173 129.523 45.4626C129.64 45.2306 129.757 44.9986 129.868 44.764C129.944 44.6041 130.022 44.4454 130.101 44.2872C130.107 44.2759 130.112 44.2647 130.118 44.2531C130.164 44.1608 130.211 44.0685 130.257 43.9763C130.298 43.8959 130.338 43.8154 130.378 43.735C130.384 43.7237 130.39 43.7124 130.395 43.7008C130.478 43.537 130.557 43.3722 130.636 43.2066C130.75 42.9668 130.87 42.7299 130.99 42.4927C131.106 42.2607 131.223 42.0287 131.334 41.7941C131.41 41.6342 131.488 41.4755 131.567 41.3173C131.573 41.306 131.579 41.2947 131.585 41.2831C131.631 41.1908 131.677 41.0986 131.724 41.0064C131.764 40.9259 131.804 40.8455 131.845 40.7651C131.85 40.7538 131.856 40.7425 131.862 40.7309C131.944 40.5676 132.023 40.4035 132.102 40.2385C132.203 40.0245 132.31 39.8126 132.416 39.6006C132.446 39.5413 132.475 39.4819 132.505 39.4225C132.528 39.3762 132.551 39.33 132.574 39.2837C132.591 39.2512 132.607 39.2187 132.623 39.1861C132.638 39.157 132.638 39.157 132.653 39.1272C132.665 39.1015 132.665 39.1015 132.679 39.0753C132.699 39.0365 132.699 39.0365 132.718 39.0179C132.772 39.0161 132.826 39.0155 132.881 39.0157C132.907 39.0157 132.907 39.0157 132.933 39.0156C132.991 39.0156 133.05 39.0157 133.108 39.0158C133.15 39.0158 133.192 39.0158 133.233 39.0158C133.347 39.0158 133.461 39.0159 133.574 39.016C133.693 39.0161 133.811 39.0162 133.93 39.0162C134.129 39.0162 134.328 39.0163 134.527 39.0165C134.732 39.0167 134.938 39.0168 135.143 39.0169C135.155 39.0169 135.168 39.0169 135.181 39.0169C135.244 39.0169 135.308 39.017 135.371 39.017C135.897 39.0172 136.424 39.0175 136.95 39.0179C136.923 39.0995 136.893 39.172 136.852 39.2476C136.843 39.2642 136.843 39.2642 136.834 39.2812C136.815 39.3172 136.795 39.3532 136.776 39.3891C136.762 39.4144 136.749 39.4396 136.735 39.4648C136.65 39.624 136.563 39.7827 136.477 39.9412C136.402 40.0769 136.329 40.2133 136.256 40.3497C136.25 40.3607 136.244 40.3716 136.238 40.3829C136.226 40.405 136.215 40.4271 136.203 40.4492C136.197 40.4602 136.191 40.4711 136.185 40.4824C136.179 40.4934 136.173 40.5043 136.167 40.5156C136.027 40.7772 135.887 41.0384 135.744 41.2987C135.661 41.4522 135.578 41.6062 135.495 41.7604C135.489 41.7714 135.483 41.7823 135.477 41.7936C135.454 41.8378 135.43 41.8821 135.406 41.9263C135.266 42.1879 135.126 42.4491 134.983 42.7094C134.899 42.8629 134.817 43.0169 134.734 43.1711C134.728 43.1821 134.722 43.193 134.716 43.2043C134.693 43.2485 134.669 43.2928 134.645 43.337C134.505 43.5986 134.365 43.8599 134.222 44.1201C134.138 44.2736 134.055 44.4276 133.973 44.5818C133.967 44.5928 133.961 44.6037 133.955 44.615C133.932 44.6592 133.908 44.7035 133.884 44.7478C133.744 45.0093 133.604 45.2706 133.461 45.5308C133.377 45.6843 133.294 45.8383 133.212 45.9926C133.206 46.0035 133.2 46.0144 133.194 46.0257C133.171 46.0699 133.147 46.1142 133.123 46.1585C132.983 46.42 132.843 46.6813 132.7 46.9415C132.616 47.095 132.533 47.249 132.451 47.4033C132.445 47.4142 132.439 47.4251 132.433 47.4364C132.409 47.4807 132.386 47.5249 132.362 47.5692C132.229 47.8177 132.096 48.066 131.961 48.3133C131.942 48.3473 131.923 48.3813 131.905 48.4154C131.863 48.4939 131.819 48.5716 131.774 48.6484C131.762 48.6695 131.762 48.6695 131.749 48.6911C131.734 48.7171 131.719 48.7428 131.703 48.7682C131.674 48.8183 131.657 48.8542 131.665 48.9123C131.679 48.9571 131.696 48.9986 131.715 49.0413C131.723 49.0583 131.73 49.0752 131.737 49.0926C131.763 49.1512 131.789 49.2094 131.815 49.2676C131.835 49.3124 131.855 49.3572 131.875 49.402C131.881 49.4135 131.886 49.4251 131.891 49.4369C131.948 49.5633 132.003 49.6904 132.058 49.8175C132.068 49.8412 132.078 49.8649 132.088 49.8886C132.109 49.936 132.129 49.9834 132.15 50.0307C132.196 50.1376 132.242 50.2443 132.288 50.3511C132.298 50.373 132.307 50.3949 132.317 50.4174C132.432 50.6829 132.547 50.9484 132.663 51.2139C132.765 51.4487 132.867 51.6835 132.968 51.9184C133.132 52.296 133.296 52.6734 133.46 53.0508C133.558 53.2784 133.657 53.5059 133.756 53.7335C133.782 53.7946 133.809 53.8557 133.835 53.9168C133.844 53.937 133.853 53.9572 133.862 53.978C133.917 54.1053 133.972 54.2326 134.028 54.3599C134.369 55.1462 134.369 55.1462 134.517 55.489C134.616 55.7161 134.714 55.9432 134.813 56.1703C134.822 56.1912 134.831 56.2121 134.84 56.2336C134.906 56.3854 134.972 56.5371 135.038 56.6889C135.113 56.8617 135.188 57.0346 135.263 57.2074C135.272 57.2284 135.281 57.2493 135.291 57.2709C135.398 57.5184 135.505 57.7658 135.613 58.0134C135.767 58.3701 135.922 58.7268 136.077 59.0834C136.176 59.311 136.274 59.5385 136.373 59.7661C136.4 59.8272 136.426 59.8883 136.453 59.9494C136.461 59.9697 136.47 59.9899 136.479 60.0107C136.534 60.1379 136.59 60.2652 136.645 60.3925C136.985 61.1774 136.985 61.1774 137.108 61.4593C137.213 61.7017 137.318 61.944 137.423 62.1864C137.442 62.231 137.462 62.2757 137.481 62.3204C137.508 62.3834 137.536 62.4465 137.563 62.5095C137.571 62.5284 137.579 62.5473 137.588 62.5668C137.596 62.5847 137.603 62.6026 137.611 62.621C137.619 62.638 137.626 62.6549 137.634 62.6723C137.661 62.7338 137.688 62.7949 137.716 62.8558C137.729 62.8885 137.729 62.8885 137.729 62.9257C136.406 62.9257 135.083 62.9257 133.72 62.9257C133.591 62.6357 133.463 62.3461 133.338 62.0542C133.297 61.957 133.255 61.8598 133.214 61.7626C133.205 61.7425 133.196 61.7223 133.188 61.7015C133.088 61.4696 132.988 61.2382 132.887 61.0068C132.759 60.7112 132.631 60.4154 132.504 60.119C132.415 59.9116 132.326 59.7045 132.236 59.4975C132.11 59.2057 131.985 58.9136 131.86 58.6214C131.693 58.2323 131.525 57.8436 131.357 57.4555C131.222 57.1466 131.089 56.8373 130.957 56.5276C130.881 56.3515 130.806 56.1755 130.729 55.9997C130.625 55.76 130.522 55.5196 130.419 55.2793C130.215 54.8027 130.01 54.327 129.803 53.8516C129.72 53.6602 129.637 53.4686 129.554 53.2769C129.544 53.2548 129.544 53.2548 129.535 53.2322C129.501 53.1531 129.466 53.0741 129.432 52.995C129.299 53.2377 129.168 53.481 129.037 53.7251C129.025 53.7473 129.013 53.7695 129.001 53.7917C128.996 53.8027 128.99 53.8137 128.984 53.825C128.923 53.9383 128.862 54.0514 128.801 54.1644C128.711 54.3314 128.621 54.4984 128.532 54.6656C128.432 54.8527 128.331 55.0396 128.231 55.2264C128.151 55.3735 128.073 55.5207 127.994 55.668C127.894 55.855 127.793 56.0419 127.692 56.2287C127.601 56.3975 127.511 56.5665 127.42 56.7355C127.33 56.9038 127.24 57.0719 127.149 57.2399C127.13 57.276 127.11 57.3124 127.092 57.3488C127.067 57.3934 127.043 57.4336 127.014 57.4753C126.857 57.7188 126.866 57.9591 126.869 58.2412C126.869 58.2925 126.868 58.3438 126.868 58.395C126.867 58.5047 126.868 58.6145 126.868 58.7242C126.869 58.8829 126.869 59.0415 126.868 59.2002C126.868 59.4577 126.868 59.7152 126.869 59.9727C126.869 60.2226 126.87 60.4725 126.869 60.7225C126.869 60.7381 126.869 60.7537 126.869 60.7697C126.869 60.8917 126.869 61.0138 126.869 61.1358C126.869 61.7324 126.87 62.329 126.871 62.9257C125.756 62.9257 124.641 62.9257 123.492 62.9257C123.492 55.0361 123.492 47.1465 123.492 39.0179Z" fill="white"/>
<path d="M92.3084 39.0186C96.2777 39.0186 100.247 39.0186 104.337 39.0186C104.337 40.4519 104.337 41.8853 104.337 43.362C101.482 43.362 98.6276 43.362 95.6867 43.362C95.6867 45.1813 95.6867 47.0006 95.6867 48.8749C98.0878 48.8749 100.489 48.8749 102.963 48.8749C102.963 50.3083 102.963 51.7416 102.963 53.2184C100.562 53.2184 98.1606 53.2184 95.6867 53.2184C95.6867 54.9887 95.6867 56.7589 95.6867 58.5828C98.5411 58.5828 101.396 58.5828 104.337 58.5828C104.337 60.0162 104.337 61.4495 104.337 62.9263C100.367 62.9263 96.398 62.9263 92.3084 62.9263C92.3084 55.0367 92.3084 47.1472 92.3084 39.0186Z" fill="white"/>
<path d="M113.871 38.7722C113.939 38.7722 114.007 38.7719 114.075 38.7715C114.462 38.7706 114.842 38.7905 115.222 38.8639C115.248 38.8688 115.274 38.8737 115.3 38.8786C115.655 38.9461 116.005 39.0277 116.346 39.1469C116.369 39.1549 116.392 39.163 116.416 39.1712C117.493 39.5484 118.459 40.1406 119.339 40.8646C119.368 40.8891 119.398 40.9133 119.429 40.9376C119.55 41.0355 119.666 41.1384 119.78 41.2444C119.737 41.3978 119.683 41.546 119.626 41.6948C119.616 41.721 119.607 41.7471 119.597 41.7732C119.576 41.8291 119.555 41.885 119.534 41.9409C119.483 42.076 119.432 42.2112 119.381 42.3464C119.369 42.3776 119.357 42.4088 119.346 42.4399C119.226 42.7588 119.107 43.0782 118.989 43.3976C118.784 43.9491 118.578 44.4997 118.369 45.0496C118.291 45.0496 118.271 45.0153 118.215 44.9614C118.195 44.9426 118.175 44.9237 118.155 44.9049C118.144 44.8951 118.134 44.8852 118.123 44.8751C117.419 44.2241 116.584 43.6958 115.678 43.379C115.644 43.3668 115.611 43.3546 115.577 43.3423C115.41 43.2826 115.242 43.2352 115.069 43.1981C115.053 43.1946 115.037 43.1911 115.02 43.1876C114.666 43.1167 114.311 43.0897 113.95 43.0913C113.931 43.0914 113.911 43.0914 113.891 43.0914C113.556 43.0925 113.24 43.119 112.912 43.1934C112.893 43.1977 112.873 43.202 112.853 43.2064C112.472 43.2912 112.127 43.4274 111.798 43.6389C111.781 43.6498 111.763 43.6607 111.745 43.672C111.449 43.8703 111.225 44.1416 111.059 44.4534C111.043 44.4822 111.026 44.5104 111.009 44.5382C110.8 44.9024 110.777 45.4374 110.796 45.8478C110.797 45.8663 110.797 45.8848 110.798 45.9038C110.82 46.5389 110.99 47.1691 111.469 47.6158C111.865 47.9843 112.333 48.2003 112.84 48.3676C112.901 48.3876 112.961 48.4076 113.022 48.4277C113.037 48.4326 113.052 48.4375 113.067 48.4425C113.146 48.4686 113.225 48.4952 113.303 48.5227C113.761 48.6818 114.232 48.8083 114.702 48.928C115.109 49.0324 115.507 49.1687 115.906 49.3021C115.952 49.3173 115.997 49.3324 116.043 49.3475C116.897 49.6297 117.774 50.0578 118.408 50.713C118.443 50.748 118.48 50.7799 118.518 50.8119C119.285 51.474 119.733 52.5939 119.934 53.5648C119.946 53.6223 119.96 53.6796 119.973 53.7369C120.152 54.5443 120.166 55.4177 120.151 56.2425C120.151 56.2606 120.151 56.2787 120.15 56.2973C120.144 56.6571 120.102 57.0153 120.063 57.3726C120.057 57.4236 120.052 57.4746 120.047 57.5256C119.975 58.1824 119.768 58.8446 119.52 59.4537C119.513 59.4718 119.506 59.49 119.498 59.5087C119.33 59.9281 119.105 60.3179 118.833 60.6787C118.825 60.6895 118.817 60.7003 118.809 60.7114C118.652 60.9221 118.487 61.1228 118.299 61.3066C118.248 61.3566 118.199 61.4073 118.154 61.4618C117.931 61.7214 117.63 61.9225 117.346 62.1103C117.332 62.1195 117.319 62.1286 117.304 62.138C117.09 62.2793 116.87 62.401 116.637 62.5094C116.624 62.5158 116.61 62.5222 116.596 62.5289C116.305 62.663 116.006 62.7609 115.7 62.8505C115.683 62.8554 115.666 62.8603 115.649 62.8654C115.237 62.9853 114.831 63.0653 114.403 63.1046C114.364 63.1083 114.324 63.1122 114.284 63.1162C113.968 63.1485 113.653 63.1509 113.336 63.151C113.315 63.151 113.295 63.151 113.274 63.151C112.483 63.1509 112.483 63.1509 112.144 63.1011C112.122 63.0979 112.101 63.0948 112.078 63.0916C111.137 62.9479 110.239 62.6862 109.378 62.2792C109.334 62.2587 109.29 62.2388 109.246 62.2192C109.038 62.1259 108.845 62.0112 108.65 61.8933C108.596 61.861 108.542 61.8302 108.487 61.7994C108.14 61.5966 107.816 61.3431 107.502 61.0917C107.474 61.069 107.446 61.0465 107.417 61.024C107.325 60.9497 107.238 60.8732 107.156 60.788C107.122 60.754 107.087 60.7227 107.05 60.6915C106.912 60.5725 106.783 60.4415 106.667 60.3011C106.635 60.2673 106.602 60.2413 106.564 60.2147C106.602 60.0927 106.648 59.9757 106.699 59.8585C106.707 59.8405 106.715 59.8226 106.723 59.8041C106.739 59.7657 106.756 59.7272 106.772 59.6888C106.808 59.6071 106.843 59.5254 106.878 59.4436C106.896 59.4019 106.914 59.3602 106.932 59.3185C107.012 59.1314 107.092 58.944 107.172 58.7564C107.185 58.7262 107.198 58.696 107.21 58.6657C107.236 58.6057 107.261 58.5457 107.287 58.4858C107.345 58.3474 107.404 58.2092 107.463 58.0709C107.496 57.994 107.528 57.9171 107.561 57.8402C107.571 57.8173 107.571 57.8173 107.581 57.794C107.622 57.6976 107.663 57.6013 107.703 57.5049C107.989 56.833 107.989 56.833 108.123 56.5209C108.179 56.5209 108.179 56.5209 108.208 56.5441C108.218 56.5548 108.229 56.5655 108.239 56.5766C108.254 56.5921 108.254 56.5921 108.27 56.6079C108.304 56.6451 108.336 56.683 108.369 56.7212C108.435 56.7969 108.506 56.8666 108.579 56.935C108.592 56.9471 108.605 56.9592 108.618 56.9716C108.728 57.0729 108.843 57.1661 108.962 57.2562C108.997 57.2831 109.032 57.3107 109.067 57.3383C109.9 57.9947 110.898 58.4503 111.928 58.6926C111.942 58.6959 111.956 58.6993 111.97 58.7027C112.414 58.8087 112.865 58.8377 113.32 58.8411C113.343 58.8413 113.365 58.8415 113.388 58.8417C113.763 58.8428 114.122 58.7883 114.489 58.7183C114.526 58.7113 114.564 58.7047 114.601 58.6981C114.749 58.6708 114.883 58.6323 115.021 58.572C115.04 58.5639 115.059 58.5558 115.078 58.5475C115.375 58.418 115.66 58.2804 115.901 58.0615C115.921 58.0433 115.921 58.0433 115.942 58.0247C116.454 57.5621 116.687 56.9766 116.754 56.2981C116.756 56.2824 116.758 56.2666 116.76 56.2504C116.823 55.7066 116.75 55.033 116.439 54.5719C116.426 54.5476 116.426 54.5476 116.412 54.5228C116.056 53.8795 115.26 53.6007 114.598 53.4092C114.493 53.3795 114.389 53.3508 114.285 53.3224C114.263 53.3167 114.263 53.3167 114.242 53.3108C113.967 53.2366 113.691 53.1749 113.412 53.1207C112.95 53.0299 112.495 52.9111 112.04 52.7899C112.014 52.7831 112.014 52.7831 111.988 52.7761C111.554 52.6603 111.136 52.5203 110.722 52.3444C110.709 52.3392 110.697 52.3339 110.684 52.3285C110.525 52.2612 110.371 52.1904 110.221 52.1043C110.203 52.0942 110.185 52.0842 110.167 52.0738C109.853 51.892 109.539 51.6928 109.273 51.4442C109.212 51.3875 109.151 51.3317 109.087 51.2783C108.904 51.1182 108.751 50.924 108.606 50.7296C108.597 50.7179 108.588 50.7061 108.579 50.6941C108.425 50.4908 108.305 50.2724 108.189 50.0463C108.179 50.0255 108.179 50.0255 108.168 50.0043C108.039 49.7533 107.925 49.5001 107.837 49.2318C107.83 49.2104 107.822 49.189 107.815 49.1669C107.415 47.9322 107.376 46.6196 107.434 45.3327C107.435 45.3162 107.435 45.2997 107.436 45.2827C107.452 44.9344 107.493 44.5938 107.552 44.2503C107.557 44.2254 107.557 44.2254 107.561 44.2C107.608 43.9296 107.661 43.6625 107.733 43.3976C107.738 43.3794 107.743 43.3612 107.748 43.3424C107.785 43.2117 107.823 43.0817 107.863 42.9521C107.869 42.9337 107.875 42.9152 107.881 42.8962C108.049 42.3565 108.281 41.8383 108.606 41.3744C108.629 41.3388 108.652 41.3032 108.675 41.2676C108.702 41.2289 108.728 41.1903 108.754 41.1516C108.765 41.1345 108.765 41.1345 108.777 41.1169C109.028 40.7305 109.385 40.3888 109.738 40.0936C109.754 40.0795 109.771 40.0654 109.787 40.0509C110.029 39.8483 110.299 39.6904 110.573 39.5367C110.587 39.5288 110.601 39.5208 110.616 39.5126C110.869 39.3689 111.134 39.263 111.409 39.1655C111.435 39.1563 111.435 39.1563 111.461 39.1469C111.759 39.0427 112.066 38.9727 112.374 38.9056C112.389 38.9023 112.404 38.8989 112.419 38.8955C112.667 38.8411 112.92 38.8181 113.172 38.7942C113.19 38.7924 113.209 38.7906 113.227 38.7887C113.442 38.77 113.656 38.7722 113.871 38.7722Z" fill="white"/>
<path d="M9.32204 45.5092C9.35194 45.5092 9.38185 45.5091 9.41176 45.5091C9.49367 45.5089 9.57559 45.509 9.6575 45.5091C9.74672 45.5092 9.83594 45.5091 9.92516 45.509C10.0814 45.5089 10.2377 45.5089 10.394 45.509C10.6264 45.5091 10.8588 45.5091 11.0912 45.5089C11.5063 45.5087 11.9213 45.5088 12.3364 45.5089C12.6996 45.509 13.0628 45.509 13.426 45.5089C13.4501 45.5089 13.4742 45.5089 13.499 45.5089C13.5968 45.5089 13.6946 45.5089 13.7924 45.5089C14.0657 45.5089 14.339 45.5088 14.6124 45.5088C14.6248 45.5088 14.6373 45.5088 14.6501 45.5088C15.0466 45.5088 15.4432 45.5089 15.8397 45.5089C15.8526 45.5089 15.8654 45.5089 15.8787 45.5089C16.0875 45.509 16.2963 45.509 16.5051 45.5091C17.3333 45.5093 18.1615 45.5093 18.9898 45.5091C19.1985 45.509 19.4072 45.509 19.616 45.5089C19.6352 45.5089 19.6352 45.5089 19.6549 45.5089C20.0511 45.5088 20.4472 45.5088 20.8433 45.5088C20.8558 45.5088 20.8682 45.5088 20.881 45.5088C21.1663 45.5088 21.4516 45.5089 21.7368 45.5089C21.8344 45.5089 21.932 45.5089 22.0296 45.5089C22.0537 45.5089 22.0777 45.5089 22.1025 45.509C22.4655 45.509 22.8285 45.5089 23.1915 45.5089C23.6042 45.5087 24.0169 45.5088 24.4296 45.509C24.6607 45.5091 24.8917 45.5091 25.1227 45.5089C25.277 45.5089 25.4313 45.5089 25.5855 45.5091C25.6735 45.5092 25.7614 45.5092 25.8493 45.5091C25.9294 45.5089 26.0094 45.509 26.0894 45.5092C26.1182 45.5092 26.1469 45.5092 26.1756 45.5091C26.4778 45.5082 26.7032 45.5299 26.931 45.7425C27.1275 45.95 27.1459 46.2347 27.1447 46.5077C27.1448 46.5364 27.1449 46.565 27.145 46.5936C27.1452 46.6717 27.1452 46.7498 27.145 46.8279C27.1449 46.9124 27.1452 46.9969 27.1454 47.0813C27.1457 47.2466 27.1457 47.4118 27.1456 47.5771C27.1455 47.7115 27.1456 47.8459 27.1457 47.9802C27.1457 47.9994 27.1457 48.0186 27.1457 48.0383C27.1457 48.0772 27.1458 48.1161 27.1458 48.1551C27.146 48.5197 27.1459 48.8844 27.1457 49.2491C27.1455 49.5823 27.1458 49.9156 27.1462 50.2488C27.1467 50.5914 27.1469 50.934 27.1467 51.2766C27.1467 51.4688 27.1467 51.661 27.147 51.8531C27.1473 52.0167 27.1473 52.1803 27.147 52.3439C27.1468 52.4273 27.1468 52.5107 27.1471 52.5941C27.1473 52.6706 27.1472 52.7471 27.1469 52.8236C27.1468 52.8511 27.1469 52.8786 27.1471 52.9061C27.149 53.1948 27.1008 53.4502 26.9008 53.6672C26.6957 53.8628 26.4023 53.8751 26.1336 53.8738C26.1038 53.8739 26.0739 53.874 26.044 53.8741C25.9622 53.8743 25.8803 53.8742 25.7984 53.874C25.7093 53.8739 25.6201 53.8741 25.531 53.8743C25.3748 53.8745 25.2186 53.8745 25.0624 53.8744C24.8301 53.8742 24.5979 53.8744 24.3656 53.8746C23.9507 53.875 23.5359 53.875 23.1211 53.8749C22.758 53.8748 22.3949 53.8748 22.0318 53.8749C21.9831 53.875 21.9344 53.875 21.8857 53.875C21.8123 53.875 21.739 53.875 21.6656 53.8751C20.9833 53.8753 20.3011 53.8753 19.6189 53.8752C19.606 53.8752 19.5931 53.8752 19.5799 53.8752C19.4365 53.8752 19.2932 53.8751 19.1498 53.8751C19.1369 53.8751 19.1239 53.8751 19.1106 53.8751C19.0056 53.8751 19.0056 53.8751 18.9535 53.875C18.1257 53.8749 17.2979 53.875 16.47 53.8754C16.2614 53.8755 16.0529 53.8757 15.8443 53.8758C15.8314 53.8758 15.8186 53.8758 15.8053 53.8758C15.4094 53.876 15.0134 53.8761 14.6175 53.8761C14.5988 53.8761 14.5988 53.8761 14.5798 53.8761C14.2945 53.8761 14.0093 53.8761 13.7241 53.876C13.6265 53.876 13.5289 53.876 13.4313 53.876C13.4073 53.876 13.3833 53.876 13.3585 53.876C12.9957 53.8759 12.6329 53.8761 12.2701 53.8763C11.8575 53.8766 11.4449 53.8766 11.0323 53.8763C10.8014 53.8761 10.5705 53.8761 10.3397 53.8765C10.1854 53.8767 10.0311 53.8766 9.87684 53.8763C9.78897 53.8761 9.70111 53.8761 9.61324 53.8764C9.53317 53.8766 9.4531 53.8765 9.37302 53.8762C9.34437 53.8761 9.31572 53.8762 9.28707 53.8764C9.02461 53.878 8.73158 53.8535 8.52916 53.6661C8.35501 53.4763 8.31499 53.2526 8.31763 53.0036C8.31747 52.9737 8.31725 52.9438 8.31698 52.9139C8.31641 52.8326 8.31663 52.7513 8.317 52.6699C8.31726 52.5819 8.31677 52.4939 8.31637 52.4058C8.31572 52.2337 8.31578 52.0616 8.31609 51.8894C8.31633 51.7494 8.31633 51.6095 8.31615 51.4695C8.31612 51.4495 8.3161 51.4295 8.31607 51.409C8.31602 51.3684 8.31597 51.3278 8.31591 51.2873C8.31545 50.9073 8.31579 50.5274 8.3164 50.1474C8.31691 49.8219 8.31668 49.4963 8.31592 49.1708C8.31504 48.7922 8.31464 48.4136 8.315 48.035C8.31504 47.9945 8.31508 47.9541 8.31511 47.9137C8.31513 47.8938 8.31515 47.8739 8.31516 47.8534C8.31525 47.7137 8.31499 47.574 8.31459 47.4343C8.3141 47.2639 8.31415 47.0935 8.31487 46.9231C8.31522 46.8362 8.31534 46.7494 8.31481 46.6626C8.31433 46.5829 8.31455 46.5032 8.31529 46.4235C8.31545 46.3949 8.31535 46.3662 8.31498 46.3376C8.31217 46.107 8.36914 45.8902 8.53249 45.7183C8.75824 45.5037 9.02593 45.5083 9.32204 45.5092ZM9.14518 46.29C9.13485 46.3034 9.12451 46.3168 9.11386 46.3306C9.10391 46.3429 9.09395 46.3551 9.0837 46.3678C9.05807 46.405 9.03653 46.4366 9.02105 46.4791C9.02714 46.5101 9.03335 46.541 9.03961 46.5719C9.04123 46.6082 9.04191 46.6445 9.0419 46.6808C9.04193 46.7027 9.04197 46.7246 9.04201 46.7472C9.04195 46.7712 9.0419 46.7951 9.04184 46.8199C9.04185 46.8457 9.04187 46.8715 9.04189 46.8973C9.04193 46.9682 9.04186 47.0391 9.04177 47.11C9.04169 47.1865 9.04171 47.2629 9.04173 47.3394C9.04174 47.4718 9.04168 47.6043 9.04157 47.7368C9.04142 47.9283 9.04138 48.1198 9.04135 48.3114C9.04131 48.6221 9.04119 48.9329 9.04101 49.2436C9.04084 49.5455 9.04071 49.8473 9.04063 50.1492C9.04063 50.1678 9.04062 50.1864 9.04062 50.2056C9.04059 50.2989 9.04057 50.3922 9.04055 50.4856C9.04035 51.26 9.04003 52.0344 9.03961 52.8087C9.03349 52.8087 9.02736 52.8087 9.02105 52.8087C9.02607 52.9291 9.06956 52.9994 9.15098 53.0872C9.2211 53.1429 9.28497 53.1546 9.37373 53.1614C9.37985 53.1553 9.38598 53.1492 9.39229 53.1429C9.42861 53.141 9.46501 53.1406 9.50138 53.1406C9.52529 53.1406 9.54921 53.1405 9.57385 53.1405C9.60078 53.1406 9.62772 53.1406 9.65466 53.1407C9.68309 53.1407 9.71151 53.1407 9.73994 53.1406C9.81877 53.1406 9.89761 53.1407 9.97644 53.1408C10.0619 53.1409 10.1474 53.1409 10.2329 53.1409C10.383 53.1409 10.5331 53.141 10.6832 53.1411C10.9064 53.1413 11.1295 53.1414 11.3527 53.1415C11.7281 53.1416 12.1036 53.1418 12.479 53.142C13.0153 53.1424 13.5516 53.1425 14.0879 53.1427C14.3029 53.1427 14.518 53.1428 14.733 53.1429C14.7569 53.1429 14.7808 53.1429 14.8054 53.1429C15.3621 53.143 15.9187 53.1433 16.4753 53.1435C16.513 53.1435 16.5508 53.1435 16.5885 53.1435C17.1698 53.1438 17.751 53.144 18.3323 53.1443C18.3575 53.1443 18.3827 53.1444 18.408 53.1444C18.5214 53.1444 18.6349 53.1445 18.7483 53.1445C18.7986 53.1446 18.8489 53.1446 18.8992 53.1446C18.9369 53.1446 18.9746 53.1447 19.0123 53.1447C19.8425 53.1451 20.6726 53.1454 21.5028 53.1456C21.62 53.1456 21.7372 53.1456 21.8544 53.1457C21.889 53.1457 21.889 53.1457 21.9243 53.1457C22.2959 53.1458 22.6675 53.146 23.0391 53.1463C23.4125 53.1465 23.7859 53.1467 24.1592 53.1467C24.3812 53.1467 24.6032 53.1468 24.8251 53.1471C24.9733 53.1473 25.1215 53.1473 25.2697 53.1472C25.3542 53.1472 25.4387 53.1472 25.5231 53.1474C25.6 53.1476 25.6769 53.1475 25.7538 53.1474C25.7814 53.1474 25.809 53.1474 25.8366 53.1475C26.09 53.156 26.09 53.156 26.3196 53.0675C26.4235 52.9195 26.4215 52.762 26.4206 52.5866C26.4207 52.5605 26.4208 52.5343 26.4209 52.5082C26.4211 52.4367 26.421 52.3653 26.4208 52.2938C26.4207 52.2166 26.4209 52.1394 26.4211 52.0622C26.4213 51.9111 26.4213 51.7599 26.4211 51.6088C26.421 51.486 26.421 51.3631 26.421 51.2403C26.421 51.2228 26.421 51.2053 26.421 51.1873C26.4211 51.1517 26.4211 51.1162 26.4211 51.0807C26.4213 50.7475 26.4211 50.4143 26.4208 50.0812C26.4205 49.7955 26.4206 49.5097 26.4208 49.224C26.4211 48.892 26.4212 48.56 26.4211 48.2281C26.4211 48.1926 26.421 48.1572 26.421 48.1218C26.421 48.0957 26.421 48.0957 26.421 48.069C26.4209 47.9464 26.421 47.8237 26.4212 47.701C26.4213 47.5515 26.4213 47.402 26.421 47.2525C26.4208 47.1762 26.4208 47.0999 26.421 47.0237C26.4211 46.9538 26.421 46.8839 26.4207 46.8141C26.4206 46.777 26.4208 46.7398 26.421 46.7027C26.4201 46.5583 26.4185 46.4149 26.3161 46.304C26.2185 46.2485 26.1225 46.2332 26.0115 46.2332C25.975 46.2331 25.975 46.2331 25.9377 46.2329C25.9109 46.233 25.8841 46.2331 25.8572 46.2332C25.8285 46.2332 25.7997 46.2331 25.771 46.2331C25.6917 46.2329 25.6125 46.233 25.5332 46.2332C25.4471 46.2333 25.361 46.2332 25.2749 46.2331C25.1239 46.233 24.9729 46.233 24.8219 46.2331C24.5973 46.2333 24.3727 46.2333 24.1482 46.2332C23.7704 46.2331 23.3927 46.2332 23.0149 46.2333C22.6407 46.2335 22.2665 46.2336 21.8923 46.2336C21.869 46.2336 21.8458 46.2336 21.8218 46.2336C21.7274 46.2336 21.633 46.2336 21.5386 46.2336C20.8795 46.2336 20.2205 46.2336 19.5614 46.2338C19.5428 46.2338 19.5428 46.2338 19.5237 46.2338C19.322 46.2339 19.1202 46.234 18.9184 46.234C18.1182 46.2343 17.318 46.2344 16.5178 46.2344C16.4925 46.2344 16.4672 46.2344 16.4419 46.2344C16.3914 46.2344 16.3409 46.2344 16.2903 46.2344C16.177 46.2344 16.0638 46.2344 15.9505 46.2344C15.9254 46.2344 15.9003 46.2344 15.8752 46.2344C15.205 46.2344 14.5348 46.2345 13.8646 46.2346C13.8413 46.2346 13.8179 46.2346 13.7938 46.2346C13.6997 46.2346 13.6057 46.2346 13.5116 46.2346C13.1841 46.2347 12.8566 46.2347 12.5291 46.2347C12.1071 46.2347 11.6851 46.2348 11.2631 46.235C11.0398 46.2351 10.8165 46.2351 10.5932 46.2351C10.4442 46.2351 10.2952 46.2351 10.1462 46.2353C10.0612 46.2353 9.97619 46.2353 9.8912 46.2353C9.81391 46.2353 9.73662 46.2353 9.65933 46.2354C9.63152 46.2354 9.60371 46.2354 9.57589 46.2354C9.3494 46.2202 9.3494 46.2202 9.14518 46.29Z" fill="white"/>
<path d="M9.26135 54.5309C9.29138 54.5308 9.32141 54.5308 9.35145 54.5307C9.43397 54.5305 9.51649 54.5306 9.59901 54.5307C9.68879 54.5308 9.77857 54.5307 9.86835 54.5306C10.0257 54.5304 10.1831 54.5304 10.3404 54.5304C10.5744 54.5305 10.8084 54.5304 11.0424 54.5303C11.4846 54.53 11.9268 54.53 12.369 54.53C12.7104 54.53 13.0518 54.53 13.3933 54.5299C13.4423 54.5299 13.4913 54.5299 13.5404 54.5299C13.6142 54.5299 13.6881 54.5299 13.762 54.5298C14.449 54.5297 15.1361 54.5296 15.8231 54.5297C15.8361 54.5297 15.849 54.5297 15.8624 54.5297C16.0067 54.5297 16.1511 54.5297 16.2955 54.5297C16.3151 54.5297 16.3151 54.5297 16.335 54.5297C16.4434 54.5298 16.4434 54.5298 16.4932 54.5298C17.3271 54.5299 18.161 54.5297 18.9949 54.5294C19.2051 54.5293 19.4152 54.5292 19.6253 54.5291C19.6383 54.5291 19.6512 54.5291 19.6645 54.5291C20.0633 54.5289 20.4621 54.5289 20.8609 54.5288C20.8734 54.5288 20.8859 54.5288 20.8988 54.5288C21.186 54.5288 21.4732 54.5288 21.7604 54.5289C21.8587 54.5289 21.9569 54.5289 22.0552 54.5289C22.0915 54.5289 22.0915 54.5289 22.1285 54.5289C22.494 54.5289 22.8595 54.5288 23.225 54.5286C23.6405 54.5284 24.0561 54.5283 24.4717 54.5286C24.7043 54.5287 24.937 54.5287 25.1696 54.5284C25.3249 54.5283 25.4803 54.5283 25.6356 54.5285C25.7242 54.5286 25.8127 54.5287 25.9012 54.5284C25.9818 54.5283 26.0624 54.5283 26.143 54.5286C26.172 54.5286 26.2009 54.5286 26.2298 54.5284C26.508 54.5271 26.7298 54.5611 26.9381 54.7537C27.1311 54.9562 27.146 55.246 27.1448 55.5116C27.1449 55.5403 27.145 55.569 27.1451 55.5977C27.1454 55.676 27.1453 55.7543 27.1451 55.8327C27.1451 55.9173 27.1453 56.002 27.1455 56.0867C27.1458 56.2524 27.1458 56.4181 27.1457 56.5838C27.1456 56.7186 27.1457 56.8533 27.1458 56.9881C27.1458 57.0073 27.1458 57.0265 27.1458 57.0463C27.1458 57.0853 27.1459 57.1243 27.1459 57.1633C27.1462 57.529 27.1461 57.8947 27.1458 58.2603C27.1457 58.5945 27.1459 58.9286 27.1463 59.2628C27.1468 59.6063 27.147 59.9498 27.1468 60.2933C27.1468 60.486 27.1468 60.6787 27.1471 60.8714C27.1474 61.0354 27.1474 61.1995 27.1471 61.3635C27.147 61.4471 27.1469 61.5307 27.1472 61.6143C27.1475 61.691 27.1474 61.7677 27.147 61.8445C27.1469 61.872 27.147 61.8996 27.1472 61.9272C27.1487 62.1621 27.126 62.4217 26.9705 62.61C26.9551 62.6291 26.9551 62.6291 26.9394 62.6486C26.8294 62.7716 26.697 62.8188 26.5436 62.8699C26.5037 62.8717 26.4638 62.8723 26.4239 62.8723C26.4054 62.8724 26.4054 62.8724 26.3866 62.8724C26.3451 62.8725 26.3035 62.8724 26.2619 62.8724C26.2319 62.8724 26.2018 62.8725 26.1717 62.8725C26.0885 62.8727 26.0052 62.8727 25.922 62.8726C25.8316 62.8726 25.7413 62.8728 25.6509 62.8729C25.4715 62.873 25.292 62.8731 25.1126 62.8731C24.8977 62.8732 24.6829 62.8734 24.468 62.8735C23.9487 62.8739 23.4293 62.8741 22.9099 62.8743C22.6643 62.8743 22.4187 62.8744 22.1732 62.8745C21.346 62.8749 20.5188 62.8751 19.6916 62.8753C19.6257 62.8753 19.5597 62.8753 19.4938 62.8753C19.4807 62.8753 19.4676 62.8753 19.4541 62.8753C19.3216 62.8753 19.1891 62.8754 19.0565 62.8754C19.0299 62.8754 19.0034 62.8754 18.9768 62.8754C18.1233 62.8755 17.2698 62.876 16.4163 62.8766C15.8031 62.877 15.1899 62.8774 14.5767 62.8775C14.5641 62.8775 14.5515 62.8775 14.5385 62.8775C14.2617 62.8776 13.9849 62.8776 13.7081 62.8777C13.5967 62.8777 13.4853 62.8777 13.3739 62.8777C13.3496 62.8777 13.3252 62.8777 13.3001 62.8777C12.9075 62.8777 12.515 62.878 12.1224 62.8784C11.728 62.8788 11.3336 62.8789 10.9391 62.8787C10.7047 62.8786 10.4702 62.8787 10.2358 62.8791C10.0792 62.8794 9.92271 62.8794 9.76617 62.8791C9.67693 62.879 9.5877 62.879 9.49846 62.8793C9.41724 62.8796 9.33604 62.8795 9.25482 62.8792C9.22565 62.8791 9.19649 62.8792 9.16732 62.8794C8.95272 62.8808 8.7687 62.8562 8.59424 62.7214C8.58381 62.7143 8.57337 62.7072 8.56262 62.6998C8.44104 62.6094 8.36328 62.4611 8.33437 62.3131C8.33259 62.2727 8.33188 62.2323 8.33178 62.1919C8.33172 62.1797 8.33167 62.1675 8.33161 62.1549C8.33145 62.1139 8.33142 62.0728 8.33139 62.0318C8.3313 62.0021 8.33121 61.9724 8.3311 61.9428C8.33085 61.8611 8.3307 61.7795 8.33058 61.6978C8.33047 61.6278 8.33028 61.5578 8.33009 61.4878C8.32947 61.2571 8.32907 61.0264 8.32873 60.7957C8.32864 60.7357 8.32855 60.6756 8.32846 60.6155C8.32788 60.2424 8.32739 59.8692 8.32708 59.4961C8.327 59.4096 8.32693 59.3232 8.32685 59.2368C8.32683 59.2153 8.32682 59.1938 8.3268 59.1717C8.32648 58.8238 8.32572 58.476 8.32477 58.1281C8.32381 57.7709 8.32327 57.4137 8.32314 57.0565C8.32305 56.8559 8.32278 56.6554 8.32203 56.4549C8.32139 56.2841 8.32113 56.1133 8.32137 55.9424C8.32148 55.8553 8.32141 55.7682 8.32085 55.6811C8.32034 55.6013 8.32035 55.5214 8.32076 55.4415C8.32082 55.4127 8.3207 55.384 8.32036 55.3552C8.31802 55.1442 8.3444 54.9416 8.49384 54.7809C8.50859 54.7673 8.52335 54.7538 8.53855 54.7398C8.54963 54.7294 8.56071 54.719 8.57212 54.7083C8.77654 54.5289 9.00085 54.5301 9.26135 54.5309ZM9.14181 55.3129C9.13263 55.3259 9.12344 55.3389 9.11397 55.3523C9.10402 55.3646 9.09406 55.3768 9.08381 55.3895C9.05819 55.4267 9.03665 55.4583 9.02116 55.5008C9.02725 55.5318 9.03346 55.5627 9.03972 55.5936C9.04136 55.6298 9.04205 55.666 9.04206 55.7023C9.04211 55.7241 9.04216 55.746 9.04221 55.7685C9.04217 55.7925 9.04212 55.8164 9.04208 55.8411C9.0421 55.8668 9.04213 55.8926 9.04217 55.9183C9.04225 55.9891 9.04221 56.0598 9.04215 56.1306C9.04211 56.2069 9.04217 56.2832 9.04222 56.3595C9.04231 56.509 9.04229 56.6585 9.04224 56.808C9.04219 56.9294 9.04219 57.0509 9.04221 57.1724C9.04221 57.1896 9.04221 57.2069 9.04222 57.2247C9.04222 57.2598 9.04223 57.2949 9.04223 57.33C9.04229 57.6592 9.04223 57.9883 9.04213 58.3175C9.04204 58.6001 9.04206 58.8827 9.04214 59.1653C9.04224 59.4933 9.04228 59.8213 9.04223 60.1493C9.04222 60.1843 9.04221 60.2192 9.04221 60.2542C9.04221 60.2714 9.0422 60.2886 9.0422 60.3063C9.04218 60.4277 9.04221 60.549 9.04225 60.6704C9.04231 60.8182 9.04229 60.9661 9.04219 61.1139C9.04214 61.1894 9.04213 61.2648 9.04219 61.3403C9.04224 61.4093 9.04221 61.4783 9.04211 61.5474C9.04208 61.5843 9.04214 61.6212 9.04221 61.6581C9.04216 61.6799 9.04211 61.7017 9.04206 61.7242C9.04206 61.743 9.04205 61.7619 9.04205 61.7813C9.03972 61.8304 9.03972 61.8304 9.02877 61.8712C9.01658 61.9083 9.01658 61.9083 9.04552 61.9523C9.05586 61.9672 9.0662 61.9821 9.07685 61.9975C9.09522 62.0251 9.09522 62.0251 9.11397 62.0532C9.15098 62.0781 9.1881 62.1029 9.22534 62.1274C9.23147 62.1397 9.23759 62.1519 9.24391 62.1646C9.30855 62.1784 9.30855 62.1784 9.37384 62.1831C9.37996 62.177 9.38609 62.1709 9.3924 62.1646C9.42873 62.1628 9.46512 62.1623 9.50149 62.1623C9.53736 62.1623 9.53736 62.1623 9.57396 62.1622C9.6009 62.1623 9.62784 62.1624 9.65478 62.1624C9.6832 62.1624 9.71162 62.1624 9.74005 62.1624C9.81888 62.1624 9.89772 62.1625 9.97656 62.1626C10.062 62.1628 10.1475 62.1628 10.233 62.1628C10.3831 62.1628 10.5332 62.1629 10.6833 62.1631C10.9065 62.1633 11.1297 62.1635 11.3528 62.1636C11.7052 62.1637 12.0576 62.164 12.4099 62.1642C12.9693 62.1647 13.5286 62.1649 14.088 62.1652C14.303 62.1652 14.5181 62.1653 14.7331 62.1654C14.757 62.1654 14.7809 62.1654 14.8056 62.1654C15.3622 62.1657 15.9188 62.1659 16.4754 62.1662C16.5131 62.1662 16.5509 62.1662 16.5886 62.1663C17.1699 62.1666 17.7511 62.1669 18.3324 62.1673C18.3449 62.1673 18.3574 62.1673 18.3702 62.1673C18.5089 62.1674 18.6475 62.1675 18.7862 62.1676C18.8048 62.1676 18.8048 62.1676 18.8239 62.1677C18.8867 62.1677 18.9496 62.1678 19.0124 62.1678C19.8426 62.1684 20.6727 62.1688 21.5029 62.169C21.6201 62.1691 21.7373 62.1691 21.8545 62.1691C21.8775 62.1691 21.9006 62.1691 21.9244 62.1691C22.296 62.1693 22.6676 62.1696 23.0392 62.17C23.4126 62.1703 23.786 62.1705 24.1594 62.1705C24.3813 62.1705 24.6033 62.1707 24.8252 62.1711C24.9734 62.1713 25.1216 62.1713 25.2698 62.1712C25.3543 62.1711 25.4388 62.1711 25.5233 62.1714C25.6001 62.1717 25.677 62.1716 25.7539 62.1714C25.7815 62.1714 25.8091 62.1714 25.8368 62.1716C26.011 62.1726 26.165 62.1643 26.3197 62.0787C26.4335 61.9477 26.4216 61.7723 26.4208 61.6083C26.4208 61.5822 26.4209 61.556 26.421 61.5299C26.4212 61.4584 26.4211 61.387 26.421 61.3155C26.4208 61.2383 26.421 61.1611 26.4212 61.0839C26.4214 60.9328 26.4214 60.7816 26.4212 60.6305C26.4211 60.5077 26.4211 60.3848 26.4211 60.262C26.4211 60.2445 26.4212 60.227 26.4212 60.209C26.4212 60.1734 26.4212 60.1379 26.4212 60.1024C26.4214 59.7692 26.4212 59.4361 26.4209 59.1029C26.4206 58.8172 26.4207 58.5314 26.4209 58.2457C26.4212 57.9137 26.4214 57.5817 26.4212 57.2498C26.4212 57.2143 26.4212 57.1789 26.4211 57.1435C26.4211 57.1174 26.4211 57.1174 26.4211 57.0907C26.4211 56.9681 26.4211 56.8454 26.4213 56.7227C26.4214 56.5732 26.4214 56.4237 26.4211 56.2742C26.4209 56.1979 26.4209 56.1216 26.4211 56.0454C26.4212 55.9755 26.4211 55.9057 26.4208 55.8358C26.4208 55.7987 26.4209 55.7615 26.4211 55.7244C26.4202 55.5811 26.4176 55.4395 26.3197 55.3268C26.1528 55.2345 25.9835 55.233 25.7967 55.234C25.7681 55.234 25.7395 55.2339 25.7108 55.2338C25.6323 55.2336 25.5537 55.2337 25.4751 55.2339C25.3896 55.2341 25.3041 55.2339 25.2186 55.2338C25.0687 55.2336 24.9189 55.2337 24.769 55.2338C24.5462 55.2341 24.3233 55.234 24.1005 55.2339C23.7025 55.2337 23.3045 55.2338 22.9066 55.234C22.5583 55.2342 22.21 55.2343 21.8617 55.2342C21.8386 55.2342 21.8155 55.2342 21.7917 55.2342C21.698 55.2342 21.6043 55.2342 21.5105 55.2342C20.8562 55.2342 20.202 55.2342 19.5477 55.2345C19.5354 55.2345 19.523 55.2345 19.5103 55.2345C19.3101 55.2346 19.1098 55.2347 18.9096 55.2347C18.1154 55.2351 17.3213 55.2352 16.5271 55.2351C16.477 55.2351 16.4268 55.2351 16.3766 55.2351C16.3642 55.2351 16.3518 55.2351 16.339 55.2351C16.2016 55.2351 16.0642 55.235 15.9268 55.235C15.9144 55.235 15.9021 55.235 15.8894 55.235C15.2241 55.2349 14.5588 55.235 13.8935 55.2352C13.8232 55.2352 13.753 55.2352 13.6827 55.2353C13.6361 55.2353 13.5895 55.2353 13.5429 55.2353C13.2179 55.2354 12.8929 55.2354 12.5679 55.2353C12.1491 55.2353 11.7303 55.2354 11.3115 55.2357C11.0899 55.2358 10.8684 55.2359 10.6468 55.2358C10.4989 55.2357 10.351 55.2358 10.203 55.236C10.1187 55.2361 10.0344 55.2361 9.95008 55.236C9.87333 55.2359 9.79659 55.236 9.71984 55.2362C9.69229 55.2362 9.66474 55.2362 9.63718 55.2361C9.37707 55.2251 9.37707 55.2251 9.14181 55.3129Z" fill="white"/>
<path d="M75.3799 28.7715C77.9839 28.7715 77.9839 28.7715 78.2489 28.9014C78.2637 28.9086 78.2786 28.9159 78.2939 28.9233C78.5149 29.0353 78.6835 29.1907 78.8138 29.4026C78.8266 29.4232 78.8394 29.4437 78.8526 29.4649C78.9585 29.6445 79.0112 29.831 79.0551 30.0337C79.0585 30.048 79.0619 30.0624 79.0653 30.0772C79.1663 30.5322 79.1497 31.156 78.9002 31.5667C78.7302 31.8147 78.5464 31.9702 78.2755 32.0941C78.2384 32.1125 78.2012 32.131 78.1642 32.1498C78.1738 32.1535 78.1834 32.1572 78.1933 32.161C78.4829 32.2744 78.704 32.391 78.8881 32.6509C78.9011 32.6689 78.9141 32.6869 78.9275 32.7055C79.1282 33.0156 79.1706 33.4185 79.17 33.7797C79.17 33.7926 79.17 33.8054 79.1699 33.8187C79.1682 34.4044 79.047 34.9151 78.6265 35.345C77.8436 36.087 76.0518 35.7136 75.3799 35.7136C75.3799 33.4227 75.3799 31.1318 75.3799 28.7715ZM76.3637 30.0337C76.3637 30.5237 76.3637 31.0138 76.3637 31.5186C76.5428 31.5194 76.722 31.5202 76.9066 31.521C76.9908 31.5215 76.9908 31.5215 77.0766 31.522C77.1218 31.5221 77.1669 31.5222 77.212 31.5223C77.2349 31.5225 77.2578 31.5227 77.2814 31.5228C77.5088 31.5229 77.7572 31.5166 77.9277 31.347C78.1097 31.121 78.1325 30.8407 78.1136 30.5609C78.0956 30.4032 78.0281 30.2471 77.9043 30.1451C77.7308 30.0287 77.5724 30.0185 77.3715 30.0228C77.3456 30.023 77.3196 30.0231 77.2937 30.0232C77.1987 30.0237 77.1037 30.0253 77.0087 30.0267C76.7958 30.029 76.583 30.0313 76.3637 30.0337ZM76.3637 32.7809C76.3637 33.3321 76.3637 33.8834 76.3637 34.4514C76.5428 34.4522 76.722 34.453 76.9066 34.4538C76.9908 34.4543 76.9908 34.4543 77.0766 34.4548C77.1218 34.4549 77.1669 34.455 77.212 34.4551C77.2349 34.4552 77.2578 34.4554 77.2814 34.4556C77.5315 34.4557 77.7499 34.4279 77.96 34.2844C78.0843 34.1535 78.1461 34.0226 78.1665 33.8447C78.1688 33.8248 78.1688 33.8248 78.1712 33.8045C78.1824 33.7039 78.1894 33.606 78.1827 33.5048C78.1817 33.4836 78.1806 33.4625 78.1795 33.4408C78.1617 33.2339 78.0992 33.0631 77.9465 32.9186C77.8144 32.8175 77.6963 32.776 77.529 32.7766C77.5161 32.7766 77.5032 32.7766 77.4899 32.7766C77.4486 32.7767 77.4074 32.7769 77.3661 32.7772C77.3404 32.7773 77.3147 32.7773 77.2891 32.7773C77.1945 32.7775 77.0998 32.7781 77.0052 32.7785C76.7935 32.7793 76.5818 32.7801 76.3637 32.7809Z" fill="white"/>
<path d="M124.829 28.7529C127.442 28.7529 127.442 28.7529 127.676 28.8782C127.688 28.8847 127.701 28.8912 127.714 28.8979C127.81 28.9495 127.888 29.0103 127.966 29.087C127.991 29.1076 128.017 29.1281 128.042 29.1485C128.112 29.2091 128.155 29.2746 128.199 29.3548C128.225 29.4023 128.225 29.4023 128.253 29.444C128.499 29.814 128.564 30.337 128.564 30.7692C128.564 30.7838 128.564 30.7983 128.565 30.8133C128.564 31.0464 128.552 31.2713 128.504 31.5001C128.501 31.5154 128.498 31.5307 128.495 31.5465C128.421 31.9043 128.301 32.2079 128.059 32.4839C128.044 32.5028 128.029 32.5218 128.013 32.5414C127.9 32.6703 127.733 32.7684 127.576 32.8366C127.564 32.8366 127.552 32.8366 127.539 32.8366C127.545 32.8499 127.551 32.8633 127.557 32.8771C127.698 33.1897 127.837 33.5034 127.972 33.8182C128.038 33.9707 128.105 34.1229 128.171 34.2751C128.26 34.4786 128.349 34.6821 128.437 34.8858C128.446 34.9051 128.454 34.9244 128.463 34.9443C128.504 35.0388 128.545 35.1334 128.586 35.228C128.601 35.2626 128.616 35.2972 128.631 35.3318C128.638 35.3473 128.644 35.3629 128.651 35.3788C128.658 35.3936 128.664 35.4084 128.671 35.4236C128.677 35.4378 128.683 35.4519 128.689 35.4665C128.703 35.4965 128.716 35.5265 128.73 35.5563C128.74 35.5788 128.74 35.5788 128.75 35.6018C128.756 35.6153 128.763 35.6287 128.769 35.6426C128.783 35.6765 128.783 35.6765 128.783 35.7136C128.391 35.7136 127.999 35.7136 127.595 35.7136C127.363 35.1862 127.363 35.1862 127.269 34.9631C127.238 34.8887 127.207 34.8144 127.176 34.74C127.169 34.7243 127.163 34.7086 127.156 34.6924C127.074 34.4981 126.992 34.3043 126.909 34.1104C126.901 34.0922 126.894 34.074 126.886 34.0553C126.854 33.9822 126.823 33.909 126.792 33.8359C126.708 33.6393 126.625 33.4427 126.541 33.2461C126.527 33.2137 126.514 33.1814 126.5 33.149C126.469 33.0758 126.438 33.0026 126.407 32.9294C126.211 32.9232 126.015 32.9171 125.813 32.9108C125.813 33.8357 125.813 34.7607 125.813 35.7136C125.488 35.7136 125.163 35.7136 124.829 35.7136C124.829 33.4166 124.829 31.1196 124.829 28.7529ZM125.813 30.0151C125.813 30.5542 125.813 31.0932 125.813 31.6486C126.011 31.6494 126.21 31.6501 126.415 31.6509C126.508 31.6514 126.508 31.6514 126.604 31.6519C126.654 31.652 126.704 31.6521 126.753 31.6522C126.766 31.6523 126.779 31.6524 126.792 31.6525C127.093 31.6577 127.093 31.6577 127.345 31.5087C127.463 31.3792 127.512 31.2466 127.534 31.0743C127.537 31.0587 127.539 31.0431 127.541 31.0269C127.576 30.7795 127.57 30.4633 127.428 30.2483C127.41 30.2259 127.391 30.2037 127.372 30.1822C127.359 30.1646 127.347 30.147 127.334 30.1288C127.256 30.044 127.187 30.0278 127.075 30.0151C127.031 30.0136 126.988 30.013 126.944 30.013C126.932 30.013 126.919 30.013 126.906 30.013C126.866 30.013 126.826 30.0132 126.786 30.0133C126.761 30.0134 126.736 30.0134 126.711 30.0134C126.619 30.0135 126.528 30.0137 126.436 30.014C126.127 30.0146 126.127 30.0146 125.813 30.0151Z" fill="white"/>
<path d="M107.473 28.7715C109.754 28.7715 109.754 28.7715 110.02 28.8829C110.033 28.8883 110.047 28.8937 110.061 28.8994C110.54 29.1045 110.859 29.4992 111.054 29.9694C111.113 30.1174 111.16 30.2661 111.192 30.4223C111.194 30.4356 111.197 30.4488 111.2 30.4624C111.264 30.8097 111.265 31.1593 111.264 31.5111C111.264 31.5617 111.264 31.6123 111.264 31.6629C111.264 31.7684 111.264 31.8738 111.264 31.9793C111.264 32.1001 111.264 32.2209 111.264 32.3418C111.264 32.472 111.263 32.6023 111.263 32.7325C111.263 32.7693 111.263 32.8062 111.263 32.843C111.263 33.0659 111.263 33.2887 111.252 33.5114C111.251 33.5333 111.251 33.5333 111.25 33.5557C111.243 33.6755 111.225 33.7914 111.199 33.9085C111.194 33.9281 111.19 33.9477 111.186 33.9679C111.177 34.0066 111.169 34.0452 111.16 34.0838C111.15 34.1288 111.141 34.1738 111.132 34.219C111.06 34.5494 110.899 34.8243 110.685 35.0825C110.676 35.0936 110.667 35.1047 110.658 35.1161C110.594 35.1928 110.527 35.2555 110.448 35.3157C110.437 35.3245 110.425 35.3333 110.413 35.3424C110.38 35.3675 110.347 35.3921 110.313 35.4167C110.299 35.4276 110.284 35.4386 110.268 35.4499C110.171 35.5144 110.065 35.5559 109.956 35.5965C109.943 35.6018 109.929 35.6071 109.915 35.6125C109.227 35.8551 107.932 35.7136 107.473 35.7136C107.473 33.4227 107.473 31.1318 107.473 28.7715ZM108.457 30.0337C108.457 31.4915 108.457 32.9494 108.457 34.4514C109.237 34.506 109.237 34.506 109.927 34.2008C110.176 33.9323 110.242 33.5951 110.242 33.2406C110.242 33.2182 110.242 33.1958 110.242 33.1727C110.243 33.1116 110.243 33.0505 110.243 32.9894C110.243 32.951 110.243 32.9126 110.243 32.8743C110.243 32.7536 110.244 32.6329 110.244 32.5122C110.244 32.374 110.244 32.2358 110.245 32.0976C110.245 31.9901 110.245 31.8826 110.245 31.7751C110.245 31.7113 110.245 31.6474 110.246 31.5835C110.261 31.0442 110.261 31.0442 110.109 30.5349C110.095 30.5076 110.095 30.5076 110.081 30.4797C109.97 30.2717 109.83 30.1514 109.608 30.0708C109.239 29.9654 108.841 30.0337 108.457 30.0337Z" fill="white"/>
<path d="M116.365 28.7715C117.516 28.7715 118.668 28.7715 119.854 28.7715C119.854 29.188 119.854 29.6045 119.854 30.0337C119.027 30.0337 118.2 30.0337 117.348 30.0337C117.348 30.5605 117.348 31.0873 117.348 31.63C118.047 31.63 118.745 31.63 119.465 31.63C119.465 32.0465 119.465 32.4631 119.465 32.8922C118.766 32.8922 118.068 32.8922 117.348 32.8922C117.348 33.4068 117.348 33.9213 117.348 34.4514C118.175 34.4514 119.002 34.4514 119.854 34.4514C119.854 34.868 119.854 35.2845 119.854 35.7136C118.703 35.7136 117.551 35.7136 116.365 35.7136C116.365 33.4227 116.365 31.1318 116.365 28.7715Z" fill="white"/>
<path d="M135.482 28.6867C135.496 28.6866 135.51 28.6866 135.524 28.6865C135.709 28.6866 135.879 28.7067 136.059 28.7528C136.074 28.7563 136.088 28.7598 136.104 28.7634C136.305 28.8119 136.477 28.8921 136.657 28.9942C136.687 29.0108 136.717 29.0259 136.748 29.0408C136.923 29.1312 137.078 29.2771 137.228 29.4025C137.192 29.5313 137.149 29.6562 137.1 29.781C137.093 29.7986 137.086 29.8162 137.079 29.8343C137.065 29.8712 137.051 29.9081 137.037 29.9449C137.015 30.0012 136.993 30.0575 136.971 30.1138C136.957 30.1498 136.943 30.1858 136.929 30.2218C136.92 30.2469 136.92 30.2469 136.91 30.2724C136.877 30.356 136.843 30.4368 136.801 30.5162C136.775 30.4932 136.775 30.4932 136.749 30.4698C136.659 30.3929 136.564 30.3237 136.467 30.2563C136.449 30.2436 136.43 30.2309 136.412 30.2177C136.042 29.9754 135.615 29.9158 135.181 29.9801C135.014 30.02 134.84 30.1131 134.741 30.2563C134.606 30.5022 134.579 30.7273 134.648 30.9988C134.706 31.1756 134.804 31.2809 134.964 31.37C135.194 31.4871 135.459 31.5755 135.711 31.6282C136.105 31.7137 136.495 31.8653 136.801 32.1311C136.822 32.1491 136.822 32.1491 136.844 32.1674C137.089 32.3927 137.236 32.7542 137.284 33.0777C137.286 33.09 137.288 33.1023 137.29 33.115C137.349 33.5197 137.345 33.9386 137.265 34.3399C137.263 34.3526 137.261 34.3653 137.258 34.3784C137.17 34.8275 136.859 35.2488 136.483 35.5024C136.248 35.647 135.975 35.7299 135.703 35.7634C135.684 35.7657 135.665 35.7681 135.646 35.7705C135.275 35.8138 134.929 35.7679 134.57 35.6694C134.551 35.6642 134.532 35.6591 134.513 35.6537C134.389 35.6181 134.279 35.5704 134.166 35.5093C134.148 35.5005 134.131 35.4916 134.113 35.4824C133.887 35.3627 133.681 35.2229 133.497 35.0453C133.485 35.0348 133.473 35.0242 133.461 35.0134C133.429 34.985 133.429 34.985 133.386 34.9339C133.392 34.8698 133.413 34.8139 133.438 34.7546C133.445 34.7379 133.451 34.7213 133.458 34.7042C133.466 34.6865 133.473 34.6688 133.481 34.6505C133.488 34.632 133.496 34.6136 133.504 34.5945C133.52 34.5555 133.536 34.5165 133.552 34.4775C133.577 34.4181 133.602 34.3587 133.626 34.2993C133.642 34.2613 133.658 34.2233 133.673 34.1853C133.681 34.1677 133.688 34.15 133.695 34.1319C133.737 34.032 133.782 33.935 133.831 33.8388C133.951 33.9401 133.951 33.9401 134.001 33.9889C134.199 34.1772 134.432 34.2985 134.685 34.3956C134.704 34.4029 134.723 34.4101 134.742 34.4176C135.122 34.5549 135.545 34.5437 135.92 34.3986C136.135 34.2978 136.235 34.127 136.314 33.9118C136.374 33.7096 136.344 33.4931 136.251 33.3074C136.122 33.0855 135.922 33.0122 135.683 32.9453C135.636 32.9328 135.589 32.9205 135.541 32.9084C135.506 32.8991 135.506 32.8991 135.471 32.8896C135.357 32.8597 135.243 32.8322 135.127 32.8085C135.007 32.7832 134.891 32.7493 134.775 32.71C134.747 32.7011 134.747 32.7011 134.719 32.6921C134.537 32.6313 134.37 32.5458 134.22 32.4257C134.209 32.4171 134.198 32.4084 134.187 32.3994C134.003 32.2482 133.881 32.0747 133.794 31.8526C133.787 31.8352 133.78 31.8178 133.773 31.7999C133.521 31.1417 133.566 30.3174 133.838 29.6736C133.921 29.4892 134.025 29.3428 134.166 29.1983C134.179 29.1835 134.193 29.1688 134.207 29.1536C134.301 29.0539 134.397 28.9829 134.518 28.9199C134.535 28.9107 134.552 28.9016 134.57 28.8922C134.632 28.8612 134.695 28.8341 134.759 28.8085C134.772 28.8033 134.785 28.7981 134.798 28.7928C135.024 28.704 135.242 28.6866 135.482 28.6867Z" fill="white"/>
<path d="M84.1226 28.7715C84.4472 28.7715 84.7719 28.7715 85.1064 28.7715C85.1069 28.9755 85.1069 28.9755 85.1075 29.1836C85.1087 29.6199 85.1101 30.0562 85.1116 30.4925C85.1118 30.5603 85.112 30.6282 85.1123 30.6961C85.1123 30.7096 85.1124 30.7231 85.1124 30.7371C85.1131 30.9552 85.1137 31.1734 85.1143 31.3916C85.1149 31.6158 85.1156 31.84 85.1164 32.0642C85.1169 32.19 85.1173 32.3158 85.1176 32.4416C85.1178 32.5602 85.1182 32.6789 85.1188 32.7975C85.1189 32.8408 85.119 32.8841 85.1191 32.9274C85.1187 33.5714 85.1187 33.5714 85.3662 34.1544C85.3774 34.1712 85.3774 34.1712 85.3887 34.1884C85.5191 34.3641 85.715 34.4345 85.9231 34.47C86.1899 34.4974 86.3951 34.4111 86.6122 34.2635C86.8714 34.0324 86.9163 33.6278 86.944 33.3006C86.9466 33.2366 86.9469 33.1726 86.9469 33.1086C86.947 33.0899 86.9471 33.0713 86.9472 33.0521C86.9475 32.99 86.9477 32.9279 86.9478 32.8659C86.948 32.8212 86.9482 32.7766 86.9484 32.7319C86.9488 32.6235 86.9492 32.5151 86.9495 32.4067C86.9499 32.2805 86.9504 32.1543 86.9509 32.0281C86.9518 31.803 86.9526 31.578 86.9533 31.3529C86.9541 31.1344 86.9548 30.9159 86.9557 30.6974C86.9557 30.6771 86.9557 30.6771 86.9558 30.6565C86.9561 30.5888 86.9563 30.5212 86.9566 30.4535C86.9587 29.8929 86.9607 29.3322 86.9626 28.7715C87.2811 28.7715 87.5996 28.7715 87.9278 28.7715C87.9298 29.3863 87.9316 30.0011 87.9325 30.6159C87.9326 30.6888 87.9328 30.7617 87.9329 30.8345C87.9329 30.8563 87.9329 30.8563 87.933 30.8785C87.9334 31.1122 87.9341 31.3459 87.9349 31.5796C87.9358 31.8201 87.9363 32.0606 87.9365 32.3011C87.9366 32.4359 87.9369 32.5706 87.9376 32.7054C87.947 34.5864 87.947 34.5864 87.3338 35.231C87.3188 35.2479 87.3039 35.2647 87.2885 35.282C87.024 35.5662 86.6913 35.7063 86.3129 35.7693C86.2994 35.7718 86.286 35.7743 86.2721 35.7768C86.0942 35.805 85.9064 35.7991 85.7309 35.7608C85.682 35.7499 85.682 35.7499 85.6321 35.7459C85.3536 35.7162 85.0936 35.5574 84.8836 35.3795C84.8677 35.367 84.8518 35.3545 84.8354 35.3417C84.496 35.0615 84.3169 34.5888 84.2154 34.173C84.2123 34.1605 84.2092 34.148 84.2061 34.1351C84.0699 33.5549 84.1175 32.9203 84.1188 32.3296C84.119 32.2169 84.1191 32.1042 84.1191 31.9915C84.1192 31.7689 84.1194 31.5462 84.1198 31.3235C84.1201 31.1077 84.1204 30.8918 84.1206 30.6759C84.1206 30.6626 84.1206 30.6492 84.1206 30.6354C84.1206 30.5682 84.1207 30.5011 84.1207 30.4339C84.1211 29.8798 84.1218 29.3256 84.1226 28.7715Z" fill="white"/>
<path d="M78.684 19.75C78.978 19.75 79.272 19.75 79.5749 19.75C79.5749 20.6137 79.5749 21.4774 79.5749 22.3672C80.1385 22.3672 80.702 22.3672 81.2826 22.3672C81.2826 21.5035 81.2826 20.6399 81.2826 19.75C81.5766 19.75 81.8707 19.75 82.1736 19.75C82.1736 21.8326 82.1736 23.9153 82.1736 26.0611C81.8796 26.0611 81.5856 26.0611 81.2826 26.0611C81.2826 25.2157 81.2826 24.3704 81.2826 23.4995C80.7191 23.4995 80.1555 23.4995 79.5749 23.4995C79.5749 24.3448 79.5749 25.1901 79.5749 26.0611C79.2809 26.0611 78.9869 26.0611 78.684 26.0611C78.684 23.9784 78.684 21.8958 78.684 19.75Z" fill="white"/>
<path d="M83.2131 19.75C84.2605 19.75 85.308 19.75 86.3872 19.75C86.3872 20.1298 86.3872 20.5096 86.3872 20.9008C85.6337 20.9008 84.8803 20.9008 84.104 20.9008C84.104 21.3786 84.104 21.8564 84.104 22.3487C84.7411 22.3487 85.3781 22.3487 86.0345 22.3487C86.0345 22.7284 86.0345 23.1082 86.0345 23.4995C85.3974 23.4995 84.7604 23.4995 84.104 23.4995C84.104 23.9712 84.104 24.4428 84.104 24.9288C84.8575 24.9288 85.6109 24.9288 86.3872 24.9288C86.3872 25.3024 86.3872 25.6761 86.3872 26.0611C85.3397 26.0611 84.2923 26.0611 83.2131 26.0611C83.2131 23.9784 83.2131 21.8958 83.2131 19.75Z" fill="white"/>
<path d="M99.1948 28.7715C99.5195 28.7715 99.8441 28.7715 100.179 28.7715C100.179 30.6459 100.179 32.5202 100.179 34.4514C101.006 34.4514 101.832 34.4514 102.684 34.4514C102.684 34.868 102.684 35.2845 102.684 35.7136C101.533 35.7136 100.381 35.7136 99.1948 35.7136C99.1948 33.4227 99.1948 31.1318 99.1948 28.7715Z" fill="white"/>
<path d="M74.8045 19.75C75.9561 19.75 77.1077 19.75 78.2941 19.75C78.2941 20.1298 78.2941 20.5096 78.2941 20.9008C77.8654 20.9008 77.4366 20.9008 76.9948 20.9008C76.9948 22.6037 76.9948 24.3066 76.9948 26.0611C76.7008 26.0611 76.4068 26.0611 76.1038 26.0611C76.1038 24.3582 76.1038 22.6553 76.1038 20.9008C75.6751 20.9008 75.2463 20.9008 74.8045 20.9008C74.8045 20.5211 74.8045 20.1413 74.8045 19.75Z" fill="white"/>
<path d="M93.0137 28.7715C93.3506 28.7715 93.6875 28.7715 94.0346 28.7715C94.0346 31.0624 94.0346 33.3533 94.0346 35.7136C93.6977 35.7136 93.3608 35.7136 93.0137 35.7136C93.0137 33.4227 93.0137 31.1318 93.0137 28.7715Z" fill="white"/>
<path d="M16.2417 58.3408C17.2218 58.3408 18.2018 58.3408 19.2116 58.3408C19.2116 58.5797 19.2116 58.8186 19.2116 59.0647C18.2315 59.0647 17.2515 59.0647 16.2417 59.0647C16.2417 58.8258 16.2417 58.587 16.2417 58.3408Z" fill="white"/>
<path d="M16.2417 49.3389C17.2218 49.3389 18.2018 49.3389 19.2116 49.3389C19.2116 49.5716 19.2116 49.8044 19.2116 50.0442C18.2315 50.0442 17.2515 50.0442 16.2417 50.0442C16.2417 49.8115 16.2417 49.5787 16.2417 49.3389Z" fill="white"/>
<path d="M9.26236 62.126C9.3382 62.1449 9.3382 62.1449 9.3382 62.1449L9.26236 62.126Z" fill="#0E4571"/>
<path d="M9.0582 61.8682C9.07716 61.944 9.07716 61.944 9.07716 61.944L9.0582 61.8682Z" fill="#0E4571"/>
<path d="M9.0582 55.4629C9.07716 55.5387 9.07716 55.5387 9.07716 55.5387L9.0582 55.4629Z" fill="#0E4571"/>
<path d="M9.26236 53.1055C9.3382 53.1244 9.3382 53.1244 9.3382 53.1244L9.26236 53.1055Z" fill="#0E4571"/>
<path d="M9.0582 52.8457C9.07716 52.9215 9.07716 52.9215 9.07716 52.9215L9.0582 52.8457Z" fill="#0E4571"/>
<path d="M9.0582 46.4414C9.07716 46.5173 9.07716 46.5173 9.07716 46.5173L9.0582 46.4414Z" fill="#0E4571"/>
<path d="M7.66599 45.0684C7.68495 45.1442 7.68495 45.1442 7.68495 45.1442L7.66599 45.0684Z" fill="#0E4571"/>
<path d="M52.7158 37.4229C52.7916 37.4418 52.7916 37.4418 52.7916 37.4418L52.7158 37.4229Z" fill="#0E4571"/>
<path d="M9.2067 53.0879C9.26221 53.1064 9.26221 53.1064 9.26221 53.1064L9.2067 53.0879Z" fill="#0E4571"/>
<path d="M9.16959 53.0684C9.20671 53.0869 9.20671 53.0869 9.20671 53.0869L9.16959 53.0684Z" fill="#0E4571"/>
<path d="M52.6786 37.4023C52.7158 37.4209 52.7158 37.4209 52.7158 37.4209L52.6786 37.4023Z" fill="#0E4571"/>
<path d="M52.6416 37.3838C52.6787 37.4024 52.6787 37.4024 52.6787 37.4024L52.6416 37.3838Z" fill="#0E4571"/>
</svg>
