<?xml version="1.0" encoding="UTF-8" standalone="no"?>
<svg
   xmlns:dc="http://purl.org/dc/elements/1.1/"
   xmlns:cc="http://creativecommons.org/ns#"
   xmlns:rdf="http://www.w3.org/1999/02/22-rdf-syntax-ns#"
   xmlns:svg="http://www.w3.org/2000/svg"
   xmlns="http://www.w3.org/2000/svg"
   viewBox="0 0 2112 3264"
   height="3264"
   width="2112"
   xml:space="preserve"
   id="svg2"
   version="1.1"><metadata
     id="metadata8"><rdf:RDF><cc:Work
         rdf:about=""><dc:format>image/svg+xml</dc:format><dc:type
           rdf:resource="http://purl.org/dc/dcmitype/StillImage" /></cc:Work></rdf:RDF></metadata><defs
     id="defs6" /><g
     transform="matrix(1.3333333,0,0,-1.3333333,0,3264)"
     id="g10"><g
       transform="scale(0.1)"
       id="g12"><g
         transform="scale(1.4233)"
         id="g14"><path
           id="path16"
           style="fill:#fafafa;fill-opacity:1;fill-rule:nonzero;stroke:none"
           d="m 4991.05,15568.9 -17.81,531 -1.08,-30.6 -3.67,-30 -6.24,-26.4 -8.84,-23 -11.4,-19.4 -13.99,-15.8 -2.06,-1.8 -24.74,-17.1 -28.19,-12.3 -31.67,-7.3 -35.14,-2.4 -11.08,0.2 -34.87,3.6 -31.24,8.1 -27.59,12.7 -23.96,17.1 -13.76,14.2 -12.58,19 -9.78,22.4 -7,25.9 -4.2,29.3 -1.4,32.8 v 200.9 l -20.05,-767 33.07,-6.2 34.06,-4.4 35.11,-2.7 36.12,-0.8 17.47,0.2 36.92,1.7 35.42,3.5 33.87,5.3 32.36,7.1 30.84,9 29.31,10.7" /></g><g
         transform="scale(1.4233)"
         id="g18"><path
           id="path20"
           style="fill:#fafafa;fill-opacity:1;fill-rule:nonzero;stroke:none"
           d="m 5643.31,15586.9 -24.03,539.1 -0.05,-5.9 -2.09,-32 -5.22,-28 -8.35,-24 -11.45,-20.1 -14.59,-16.1 -19.66,-13.8 -27.68,-12.1 -32.11,-7.3 -36.54,-2.5 -37.45,2.2 -32.92,6.7 -28.11,11.2 -23.3,15.6 -4.55,4.2 -13.81,16.9 -10.74,20.9 -7.68,25 -4.6,28.8 -1.53,32.9 v 171.4 l -8.33,-655.8 27.08,-15.5 28.34,-13.5 29.6,-11.3 30.85,-9.3 32.13,-7.3 33.37,-5.1 34.63,-3.1 35.9,-1.1 h 0.39 l 35.32,1 34.17,3" /></g><g
         transform="scale(1.45801)"
         id="g22"><path
           id="path24"
           style="fill:#fafafa;fill-opacity:1;fill-rule:nonzero;stroke:none"
           d="M 5821.79,15579.9 V 16300 H 4161.91 v -664 l 0.31,-11.2 1.29,-17.4 2.23,-21.2 3.25,-25 4.21,-28.7 5.19,-32.6 6.17,-36.3 0.1,-0.6 6.24,-31 7.34,-28.4 8.48,-25.6 9.61,-22.9 10.71,-20.1 11.87,-17.4 17.42,-21 19.82,-20.5 21.61,-19 23.39,-17.8 25.15,-16.3 26.93,-15 28.73,-13.6 6.24,-2.7 29.26,-11.2 30.28,-9.5 31.25,-7.8 19.58,748.8 h 336.27 v -195.4 l 17.39,-518.3 25.64,14 4.58,2.8 21.61,15 20.18,16.7 18.74,18.3 17.3,20 15.83,21.7 14.4,23.3 12.96,25 11.52,26.7 10.07,28.3 4.35,-9.1 14.11,-26.2 15.55,-24 17.04,-21.9 18.5,-19.8 19.97,-17.6 21.45,-15.6 6.58,-4.2 8.13,640.3 h 314.77 v -169.9 l 23.46,-526.3 31.09,6.8 29.96,8.6 28.84,10.6 27.7,12.4 26.57,14.4 25.45,16.3 24.31,18.2 18.12,15.9 17.49,17.9 15.81,19 14.18,20.3 12.49,21.3 10.82,22.6 9.16,23.7 7.5,24.9 5.82,26.1 4.17,27.2 2.5,28.4" /></g><g
         transform="scale(1.33267)"
         id="g26"><path
           id="path28"
           style="fill:#fafafa;fill-opacity:1;fill-rule:nonzero;stroke:none"
           d="m 6369.31,15047.8 v 419.9 h -1107.42 -0.76 l -41.65,1.3 -38.87,3.8 -36.1,6.3 -33.34,8.7 -30.56,11.3 -27.81,13.7 -25.03,16.3 -19.12,16.2 -19.15,20.8 -15.65,22.8 -12.19,24.8 -8.7,26.8 -5.22,28.8 -1.73,30.7 -16.85,600 -32.15,-11.4 -31.84,-13.2 -31.55,-15.3 -31.28,-17.1 -31,-19.1 -22.06,-14.6 -27.57,-20 -25.55,-20.7 -23.54,-21.2 -21.54,-21.9 -19.54,-22.5 -17.51,-23.1 -5.87,-8.7 -13.52,-22.6 -12.23,-24.1 -10.91,-25.4 -9.6,-26.9 -8.3,-28.3 -6.99,-29.7 -5.68,-31.2 -3.54,-23.4 -3.98,-29.3 -3.39,-28.8 -2.75,-28.1 -2.15,-27.6 -1.53,-27 -0.91,-26.4 -0.31,-25.9 0.32,-24.9 1.35,-30.8 2.38,-29.9 3.44,-29.1 4.47,-28.2 5.53,-27.4 6.55,-26.5 7.6,-25.7 8.64,-24.8 9.67,-24 10.74,-23.1 4.74,-9.3 13.79,-23.7 16.1,-23.3 18.43,-23.1 20.74,-22.9 23.05,-22.5 25.36,-22.3 27.68,-22 1.98,-1.5 27.3,-19 28.37,-17.8 29.44,-16.5 30.49,-15.2 31.57,-13.9 32.63,-12.7 33.68,-11.3 34.76,-10.1 12.92,-3.3 34.74,-7.9 35.25,-6.9 35.73,-5.8 36.23,-4.8 36.72,-3.7 37.22,-2.7 37.72,-1.5 38.19,-0.6" /></g><g
         transform="scale(1.33701)"
         id="g30"><path
           id="path32"
           style="fill:#fafafa;fill-opacity:1;fill-rule:nonzero;stroke:none"
           d="M 6348.64,15881.4 V 16300 H 5270.73 l -13.8,-0.1 -32.67,-1 -33.77,-2.1 -34.89,-3.2 -35.99,-4.4 -37.11,-5.3 -38.21,-6.5 -39.32,-7.6 -40.44,-8.7 -19.06,-4.6 -32.31,-9.4 16.8,-598.1 1.34,27.2 4.83,29 8.33,26.9 11.82,24.9 15.31,22.8 18.79,20.8 22.3,18.8 25.25,16.5 27.93,13.9 30.54,11.4 33.17,8.8 35.79,6.4 38.42,3.8 41.03,1.2" /></g><g
         transform="scale(1.20614)"
         id="g34"><path
           id="path36"
           style="fill:#fafafa;fill-opacity:1;fill-rule:nonzero;stroke:none"
           d="m 7037.48,16300 v -466 H 5030.99 v 466" /></g><g
         transform="scale(1.14697)"
         id="g38"><path
           id="path40"
           style="fill:#fafafa;fill-opacity:1;fill-rule:nonzero;stroke:none"
           d="m 7400.53,15811 v 489 h -2110 v -1252.1 h 519.58 v 763.1" /></g><g
         transform="scale(1.00835)"
         id="g42"><path
           id="path44"
           style="fill:#fafafa;fill-opacity:1;fill-rule:nonzero;stroke:none"
           d="m 7915.17,15308.8 -40.84,852.5 -0.27,-18.6 -2.88,-43.4 -6.09,-40.7 -9.24,-37.8 -12.44,-35.1 -15.62,-32.3 -18.78,-29.6 -21.99,-26.7 -25.13,-24 -28.35,-21.2 -9.14,-5.9 -28.01,-15.1 -31.71,-13.8 -35.46,-12.3 -39.18,-10.8 -42.91,-9.4 -46.65,-8 -50.39,-6.5 -54.1,-5.1 -57.83,-3.5 -61.58,-2.2 -65.29,-0.8 -41.79,0.3 -61.81,1.2 -57.5,2.5 -53.2,3.5 -48.91,4.6 -44.6,5.7 -40.3,6.9 -36.01,8 -31.7,9.1 -0.74,0.2 -48.37,18 -42.12,20.5 -35.87,23 -29.64,25.6 -23.37,28.1 -13.11,21.6 -12,27.3 -9.83,31.4 -7.62,35.7 -5.45,39.8 -3.28,44 -1.09,48.2 v 136.3 l -24.92,-1002.7 45.15,-16.8 46.91,-15.5 13.62,-4.1 36.1,-9.7 38.37,-8.9 40.6,-8.1 42.87,-7.2 45.15,-6.3 47.39,-5.6 49.64,-4.6 51.91,-3.8 54.18,-3 56.43,-2.1 58.69,-1.3 60.96,-0.4 29.96,0.2 50.63,1 50.03,2 49.48,3 48.89,3.9 48.34,4.9 47.74,5.9 47.2,6.8 46.63,7.8 46.05,8.7 41.58,9 47.73,11.8 46.34,13.3 44.96,14.6" /></g><g
         transform="scale(1.04276)"
         id="g46"><path
           id="path48"
           style="fill:#fafafa;fill-opacity:1;fill-rule:nonzero;stroke:none"
           d="M 8140.1,15500.9 V 16300 H 5819.24 v -799.1 l 0.02,-4.4 0.97,-31.9 2.48,-32.7 4.01,-33.6 5.52,-34.3 7.02,-35.1 8.56,-36 10.06,-36.7 11.6,-37.5 13.1,-38.3 12.77,-31.8 15.86,-31.6 18.78,-31.1 21.7,-30.6 24.63,-30 27.58,-29.6 30.49,-29 33.4,-28.5 28.72,-22.5 33.35,-23.6 35.05,-22.3 36.78,-21.2 38.51,-19.9 40.21,-18.7 41.91,-17.5 24.1,969.6 H 7614.49 V 15628 l 39.5,-824.4 40.8,16.8 39.5,18.1 38.14,19.5 36.8,20.8 23.52,14.5 34.71,23.5 32.7,24.9 30.71,26.1 28.74,27.5 26.72,28.8 24.75,30.2 22.76,31.5 20.76,32.8 0.37,0.6 14.77,27.3 13.38,28.8 11.94,30.2 10.57,31.7 9.13,33.3 7.76,34.7 6.33,36.1 4.93,37.7 3.49,39.2 2.12,40.6" /></g><path
         id="path50"
         style="fill:#fafafa;fill-opacity:1;fill-rule:nonzero;stroke:none"
         d="m 8488.2,13530.5 v 1503 H 6068.09 v -1530.3 h 548.09 v 968.2 h 477.07 v -872.8 h 493.61 v 872.8 h 384.62 v -940.9" /><path
         id="path52"
         style="fill:#fafafa;fill-opacity:1;fill-rule:nonzero;stroke:none"
         d="m 7054.25,11855.7 -3.91,725.2 -3.46,-37.1 -10.51,-35.5 -17.55,-33.4 -24.62,-31.5 -15.43,-13.8 -29.21,-20.3 -38.26,-21.3 -47.3,-22.5 -56.33,-23.6 -739.58,-299.6 v -633.9 l 701.61,271.2 22.03,9.1 36.29,17.6 42.73,23.4 49.17,29.1 27.65,16.8 44.01,28.5 33.17,24.1 22.27,19.7" /><path
         id="path54"
         style="fill:#fafafa;fill-opacity:1;fill-rule:nonzero;stroke:none"
         d="m 8041.66,11579.4 -42.1,804.6 -1.7,-47.8 -5.19,-43.2 -8.71,-37.7 -12.22,-32.3 -15.69,-26.8 -19.23,-21.4 -5.87,-5 -34.21,-22.2 -40.41,-15.8 -46.63,-9.5 -52.83,-3.2 h -4.53 l -49.06,4.3 -45.26,11.5 -41.45,18.8 -1.18,0.7 -34.99,26 -24.94,30.3 -14.83,34.7 -1.03,3.4 -13.99,49.3 -10.01,40.7 -6,31.9 -1.99,23.2 v 236.5 l -22.92,-1016.7 41.18,-15.4 43.25,-13 45.31,-10.6 47.38,-8.3 49.44,-5.9 51.5,-3.6 53.57,-1.1 27.07,0.2 52.44,2.4 50.52,4.7 48.6,6.9" /><path
         id="path56"
         style="fill:#fafafa;fill-opacity:1;fill-rule:nonzero;stroke:none"
         d="m 8488.2,12259 v 934.7 H 6068.09 v -563.3 h 982.25 v -49.5 l 3.91,-725.2 20.47,26 20.49,31.7 20.48,37.4 20.49,43.2 9.39,-29.2 14.81,-40.1 16.05,-36.9 17.26,-33.5 18.5,-30.2 19.73,-26.9 24.67,-28.6 29.62,-29.8 31.97,-27.8 34.32,-25.8 36.69,-23.7 39.05,-21.7 41.4,-19.6 15.05,-6.5 22.92,1016.7 h 491.95 V 12384 l 42.1,-804.6 44.76,11.6 42.83,14 40.95,16.3 39,18.7 28.1,15.6 37.56,24 34.16,25.8 30.74,27.7 27.36,29.4 23.95,31.2 20.55,33 17.16,34.9 8.8,21.9 9.63,28.2 8.59,30.2 7.61,32.3 6.57,34.5 5.57,36.5 4.54,38.6 3.55,40.6 2.52,42.8 1.54,44.8" /><path
         id="path58"
         style="fill:#fafafa;fill-opacity:1;fill-rule:nonzero;stroke:none"
         d="m 6913.32,10793.1 -44.57,533.6 -47.57,-3.7 -50.8,-5.7 -49.47,-7.2 -48.14,-8.9 -46.8,-10.4 -45.48,-12 -44.16,-13.7 -42.82,-15.2 8.76,-775 1.63,33.3 6.39,37.9 11.16,35.5 15.96,33 20.73,30.6 25.56,28.2 30.34,25.8 35.14,23.4 26.2,13.8 37.73,15.6 42.65,13.5 47.59,11.3 52.51,9.3" /><path
         id="path60"
         style="fill:#fafafa;fill-opacity:1;fill-rule:nonzero;stroke:none"
         d="m 8100.91,11208.6 -44.93,15.3 -45.6,12.5 -46.27,9.7 -46.94,7 -47.62,4.1 -48.28,1.4 h -1.35 l -50.64,-1.4 -48.96,-3.9 -47.33,-6.6 -45.67,-9.2 -43.99,-11.8 -42.36,-14.4 -40.68,-17 -39.05,-19.6 -37.37,-22.3 -35.71,-24.8 -34.08,-27.4 -14.83,-13.2 -22.75,-22.1 -22.18,-23.8 -21.57,-25.6 -20.98,-27.2 -20.38,-29 -19.8,-30.8 -19.17,-32.5 -18.6,-34.2 -18.03,-35.9 -17.4,-37.6 -16.82,-39.4 -16.23,-41.2 -15.62,-42.8 -15.05,-44.6 -14.42,-46.3 -5.91,-19.7 -15.96,-49.8 -16.22,-45.1 -16.46,-40.4 -16.68,-35.8 -16.92,-31.1 -17.16,-26.4 -17.4,-21.8 -17.62,-17.1 -0.72,-0.6 -38.23,-26.9 -40.7,-19.1 -43.13,-11.5 -45.6,-3.9 -7.54,0.1 -45.74,5 -42.89,12.3 -40.01,19.8 -37.15,27.2 -12.1,11.3 -22.99,27.5 -17.88,31.3 -12.77,34.9 -7.65,38.5 -2.55,42.2 -8.76,775 -41.47,-16.8 -40.18,-18.5 -38.83,-20 -37.49,-21.6 -36.16,-23.2 -34.83,-24.9 -19.56,-15.5 -23.56,-21 -22.23,-22.7 -20.88,-24.3 -19.53,-25.9 -18.17,-27.5 -16.83,-29.1 -15.5,-30.7 -14.14,-32.4 -12.79,-34 -11.45,-35.5 -10.1,-37.2 -8.74,-38.8 -7.41,-40.4 -6.05,-42.1 -4.73,-43.6 -3.36,-45.2 -2.02,-46.9 -0.67,-48.5 v -4.6 l 0.84,-42.8 2.26,-41.6 3.62,-40.3 5.04,-39.1 6.43,-37.9 7.83,-36.7 9.24,-35.4 10.63,-34.2 12,-33 13.42,-31.7 14.83,-30.5 16.2,-29.2 14.76,-24.2 23.21,-33.84 25.24,-32.23 27.29,-30.58 29.35,-28.92 31.37,-27.31 33.43,-25.66 35.45,-24.04 37.52,-22.39 39.52,-20.77 12.77,-6.14 42.91,-18.98 43.76,-16.73 44.59,-14.52 45.43,-12.29 46.27,-10.03 47.11,-7.83 47.96,-5.57 48.78,-3.36 49.64,-1.1 34.13,0.53 50.16,2.86 48.88,5.28 47.6,7.75 46.32,10.17 45,12.63 43.72,15.07 42.41,17.52 17.64,8.35 36.41,19.56 35.02,21.96 33.57,24.32 32.14,26.68 30.72,29.09 29.3,31.46 27.87,33.87 26.42,36.22 12.84,19.87 14.4,24 14.38,26 14.35,27.8 14.35,29.7 14.33,31.5 14.3,33.5 14.31,35.3 14.3,37.2 14.26,39.1 14.25,40.9 14.26,42.8 14.23,44.7 14.21,46.6 14.18,48.4 7.16,24.8 15.5,47.2 15.96,40 16.41,32.7 16.85,25.4 17.28,18.1 19.78,15.3 40.29,19.2 43.93,6.4 11.75,-0.3 45.6,-7 41.21,-16.4 36.79,-25.8 6.8,-6.6 20.88,-27.3 14.9,-32.5 8.93,-37.9 2.98,-43.1" /><path
         id="path62"
         style="fill:#fafafa;fill-opacity:1;fill-rule:nonzero;stroke:none"
         d="m 8529.46,10487.3 -0.05,13.8 -0.98,44.8 -2.26,43.2 -3.48,41.6 -4.73,40 -5.98,38.4 -7.19,36.8 -8.48,35.2 -9.69,33.6 -10.95,32 -12.19,30.4 -13.44,28.7 -14.66,27.2 -14.81,24.1 -24.27,35.3 -26.13,33 -27.96,30.8 -29.83,28.6 -31.68,26.3 -33.53,24.2 -35.4,21.9 -37.23,19.7 -29.37,13.7 -44.26,18 -22.12,-665.6 -0.51,-19.5 -4.78,-40.3 -9.77,-36.9 -14.75,-33.5 -19.76,-30.1 -24.72,-26.6 -16.2,-13.3 -32.8,-20.8 -38.57,-17.9 -44.3,-14.9 -50.05,-12 -55.79,-9 41.27,-528.66 16.01,1.53 54.87,6.53 52.56,8.21 50.25,9.86 47.95,11.54 45.68,13.21 43.34,14.88 41.07,16.56 38.75,18.21 36.44,19.88 34.15,21.55 31.85,23.23 29.56,24.89 27.25,26.56 3.42,3.7 21.68,25.13 20.21,26.59 18.69,28 17.19,29.4 15.72,30.8 14.2,32.3 12.7,33.7 11.23,35.2 9.72,36.6 8.21,38 6.74,39.5 5.23,40.9 3.75,42.3 2.23,43.8" /><path
         id="path64"
         style="fill:#fafafa;fill-opacity:1;fill-rule:nonzero;stroke:none"
         d="m 8322.72,7467.12 -2.5,468.72 -0.24,-20.28 -2.25,-42.77 -4.61,-41.18 -6.94,-39.63 -9.31,-37.99 -11.64,-36.43 -13.96,-34.83 -16.35,-33.26 -18.67,-31.65 -21.03,-30.05 -23.35,-28.49 -25.7,-26.88 -28.06,-25.29 -30.41,-23.72 -3.21,-2.35 -33.12,-22.49 -35.12,-20.66 -37.12,-18.87 -39.12,-17.08 -41.12,-15.29 -43.1,-13.47 -45.09,-11.68 -47.12,-9.89 -49.1,-8.09 -51.1,-6.29 -53.11,-4.51 -55.08,-2.69 -57.09,-0.89 h -418.21 l -16.94,0.05 -57,1.32 -55.1,2.98 -53.21,4.63 -51.26,6.31 -49.37,7.97 -47.45,9.6 -45.53,11.3 -43.6,12.94 -41.72,14.62 -39.79,16.27 -37.9,17.92 -35.95,19.59 -34.05,21.26 -32.14,22.9 -18.58,14.5 -28.6,24.84 -26.5,26.28 -24.36,27.72 -22.25,29.16 -20.13,30.59 -18,32.07 -15.92,33.5 -13.77,34.95 -11.64,36.38 -9.56,37.83 -7.41,39.28 -5.28,40.73 -3.19,42.17 -1.06,43.61 v 262.22 l -1.25,-749.3 25.06,-27.75 26.83,-26.63 28.63,-25.49 30.44,-24.34 1.94,-1.49 33.34,-23.9 34.77,-22.44 36.17,-21.02 37.58,-19.54 38.98,-18.12 40.42,-16.66 41.83,-15.22 43.22,-13.75 44.67,-12.31 46.05,-10.87 47.48,-9.41 48.88,-7.96 50.31,-6.54 51.72,-5.06 53.13,-3.62 54.53,-2.19 55.97,-0.72 h 411.33 l 45.15,0.51 54.86,1.97 53.38,3.52 51.84,5.02 50.32,6.55 48.82,8.09 47.33,9.6 45.79,11.14 44.31,12.64 42.79,14.16 41.28,15.7 39.74,17.23 38.26,18.75 36.77,20.25 35.23,21.79 33.72,23.33 13.29,9.82 30.34,24.33 28.42,25.59" /><path
         id="path66"
         style="fill:#fafafa;fill-opacity:1;fill-rule:nonzero;stroke:none"
         d="m 8488.2,7930.7 v 462.75 H 6068.09 v -401.04 l 0.24,-22.42 1.82,-42.6 3.6,-41.42 5.4,-40.3 7.18,-39.17 8.95,-38.01 10.77,-36.89 12.53,-35.74 14.33,-34.61 16.13,-33.45 17.91,-32.33 19.68,-31.17 21.48,-30.05 23.27,-28.92 1.25,749.3 h 2087.59 v -318.79 l 2.5,-468.72 24.48,28.13 22.51,29.35 20.57,30.62 18.6,31.9 16.66,33.12 14.68,34.42 12.73,35.66 10.77,36.91 8.81,38.19 6.86,39.43 4.9,40.68 2.92,41.95" /><path
         id="path68"
         style="fill:#fafafa;fill-opacity:1;fill-rule:nonzero;stroke:none"
         d="m 8488.2,5678.66 v 946.06 H 6068.09 v -946.06 h 164.54 v 807.24 h 1011.24 v -750.67 h 167.95 v 750.67 h 908.4 v -807.24" /><path
         id="path70"
         style="fill:#fafafa;fill-opacity:1;fill-rule:nonzero;stroke:none"
         d="m 6472.58,5251.92 -113.11,74.54 -17.26,-11.57 -36.76,-26.51 -34.44,-27.53 -32.16,-28.54 -29.86,-29.52 -27.53,-30.55 -25.25,-31.56 -22.91,-32.57 -20.64,-33.57 -15.17,-27.82 -14.81,-31.54 -13.05,-32.97 -11.33,-34.35 -9.58,-35.78 -7.83,-37.2 -6.09,-38.59 -4.37,-40.01 -2.59,-41.4 -0.89,-42.84 0.07,-10.2 1.61,-41.79 3.77,-40.34 5.93,-38.88 8.11,-37.46 10.27,-36 12.46,-34.54 14.62,-33.12 16.77,-31.66 18.96,-30.21 11.33,-17.02 25.9,-34.8 27.98,-32.3 13.63,418.32 0.07,11.91 1.46,43.26 3.37,41.33 5.28,39.36 7.17,37.42 9.08,35.45 10.99,33.5 12.91,31.54 14.81,29.59 11.2,18.22 20.79,30.65 23.28,30.84 25.77,31 28.28,31.18 30.76,31.37 33.24,31.53" /><path
         id="path72"
         style="fill:#fafafa;fill-opacity:1;fill-rule:nonzero;stroke:none"
         d="m 8369.95,4265.21 -8.59,413.42 -0.05,-7.75 -1.73,-40.54 -4.24,-39.14 -6.8,-37.73 -9.29,-36.36 -11.8,-34.97 -14.35,-33.57 -16.88,-32.16 -11.06,-17.93 -20.91,-30.6 -23.54,-30.67 -26.16,-30.77 -28.77,-30.87 -31.42,-30.95 -34.01,-31.04 -36.65,-31.12 106.28,-74.55 22.94,16.04 35.74,26.78 33.57,27.52 31.4,28.25 29.25,29" /><path
         id="path74"
         style="fill:#fafafa;fill-opacity:1;fill-rule:nonzero;stroke:none"
         d="m 8525.9,4678.63 -0.69,33.34 -2.86,40.8 -5.08,39.34 -7.3,37.87 -9.53,36.4 -11.74,34.97 -13.94,33.48 -16.18,32.02 -18.38,30.55 -24.6,35.71 -27.29,34.2 -29.13,31.32 -30.99,28.49 -32.81,25.61 -34.65,22.75 -36.48,19.87 -36.22,16.87 -46.22,18 -46.25,13.99 -46.22,9.99 -46.23,6 -46.25,1.99 h -75.4 l -25.92,-0.4 -50.76,-3.46 -48.44,-6.96 -46.13,-10.42 -43.79,-13.87 -41.47,-17.38 -39.15,-20.85 -36.84,-24.34 -15.14,-11.81 -27.15,-23.47 -26.33,-25.87 -25.48,-28.22 -24.68,-30.6 -23.83,-32.95 -23.01,-35.36 -22.18,-37.7 -21.36,-40.08 -20.52,-42.43 -116.55,-249.39 -13.75,-28.1 -22.39,-43.06 -22.46,-39.93 -22.56,-36.84 -22.68,-33.72 -22.75,-30.6 -22.83,-27.49 -22.94,-24.35 -23.02,-21.27 -10.94,-9.45 -33.7,-23.81 -37.77,-19.49 -41.83,-15.17 -45.94,-10.82 -49.99,-6.48 -54.07,-2.19 h -68.55 l -30.31,0.99 -46.9,5.47 -46.56,10.2 -46.27,15 -45.94,19.78 -26.83,13.72 -35.59,22.2 -33.27,25.68 -30.98,29.12 -28.65,32.61 -26.36,36.05 -6.5,10.39 -16.46,30.46 -13.92,32.52 -11.4,34.63 -8.86,36.7 -6.33,38.8 -3.8,40.87 -1.27,42.99 -13.63,-418.32 30.07,-29.81 32.18,-27.31 34.25,-24.81 36.36,-22.35 38.45,-19.85 27.89,-12.91 45.19,-18.05 45.84,-14.76 46.47,-11.49 47.08,-8.19 47.71,-4.94 48.34,-1.63 h 82.25 l 33.91,0.57 53.26,3.38 50.28,6.44 47.35,9.48 44.37,12.55 41.43,15.6 38.45,18.65 35.49,21.69 32.54,24.75 8.22,7.08 26.03,24.07 25.3,26.11 24.6,28.15 23.91,30.2 23.18,32.2 22.49,34.25 21.74,36.26 21.07,38.33 20.36,40.32 19.63,42.39 95.97,208.22 14.74,30.24 22.8,44.26 22.61,40.82 22.44,37.37 22.22,33.94 22.08,30.47 21.86,27.08 21.7,23.59 21.53,20.16 13.87,10.61 38.16,23.95 40.99,18.63 43.85,13.29 46.71,7.99 49.51,2.67 h 75.4 l 42.6,-2.62 45.94,-8.59 46.34,-14.54 46.8,-20.52 6.44,-3.17 35.54,-20.62 33.24,-24.65 30.94,-28.65 28.63,-32.72 26.33,-36.74 15.21,-27.36 14.21,-32.04 11.62,-34.2 9.04,-36.36 6.46,-38.49 3.86,-40.68 1.3,-42.8 8.59,-413.42 24.91,30.43 22.73,31.18 20.59,31.89 18.41,32.64 16.25,33.34 14.06,34.1 11.93,34.8 9.74,35.57 7.59,36.27 5.4,37 3.26,37.73" /><path
         id="path76"
         style="fill:#fafafa;fill-opacity:1;fill-rule:nonzero;stroke:none"
         d="M 7380.98,3094.99 7264.44,3177.27 6068.09,2496 v -143.98 z" /><path
         id="path78"
         style="fill:#fafafa;fill-opacity:1;fill-rule:nonzero;stroke:none"
         d="m 8488.2,3444.63 v 138.83 H 6068.09 v -138.83 h 723.29 212.54" /><path
         id="path80"
         style="fill:#fafafa;fill-opacity:1;fill-rule:nonzero;stroke:none"
         d="m 8488.2,2462.57 v 138.84 l -1484.28,843.22 h -212.54 l 473.06,-267.36 116.54,-82.28" /><g
         transform="scale(1.17085)"
         id="g82"><path
           id="path84"
           style="fill:none;stroke:#03bfbf;stroke-width:2.04979992;stroke-linecap:round;stroke-linejoin:round;stroke-miterlimit:10;stroke-dasharray:none;stroke-opacity:1"
           d="M 7762.59,16300 H 7461.27" /></g><g
         transform="scale(1.17085)"
         id="g86"><path
           id="path88"
           style="fill:none;stroke:#03bfbf;stroke-width:2.04979992;stroke-linecap:round;stroke-linejoin:round;stroke-miterlimit:10;stroke-dasharray:none;stroke-opacity:1"
           d="M 7250.14,16300 H 5179.84" /></g><g
         transform="scale(1.2424)"
         id="g90"><path
           id="path92"
           style="fill:#03bfbf;fill-opacity:1;fill-rule:nonzero;stroke:none"
           d="M 8489.99,16300 8020.57,650.996 V 16300" /></g><g
         transform="scale(1.2424)"
         id="g94"><path
           id="path96"
           style="fill:#03bfbf;fill-opacity:1;fill-rule:nonzero;stroke:none"
           d="M 8489.99,16300 V 650.996 h -469.42" /></g><g
         transform="scale(1.20663)"
         id="g98"><path
           id="path100"
           style="fill:#03bfbf;fill-opacity:1;fill-rule:nonzero;stroke:none"
           d="M 8015.74,16300 7532.41,1155.62 V 16300" /></g><g
         transform="scale(1.20663)"
         id="g102"><path
           id="path104"
           style="fill:#03bfbf;fill-opacity:1;fill-rule:nonzero;stroke:none"
           d="M 8015.74,16300 V 1155.62 h -483.33" /></g><g
         transform="scale(1.20663)"
         id="g106"><path
           id="path108"
           style="fill:#03bfbf;fill-opacity:1;fill-rule:nonzero;stroke:none"
           d="m 7532.41,16300 -292.39,-483.3 v 483.3" /></g><g
         transform="scale(1.20663)"
         id="g110"><path
           id="path112"
           style="fill:#03bfbf;fill-opacity:1;fill-rule:nonzero;stroke:none"
           d="m 7532.41,16300 v -483.3 h -292.39" /></g><path
         id="path114"
         style="fill:#03bfbf;fill-opacity:1;fill-rule:nonzero;stroke:none"
         d="M 9088.8,1977.6 5409.6,1394.4 v 583.2" /><path
         id="path116"
         style="fill:#03bfbf;fill-opacity:1;fill-rule:nonzero;stroke:none"
         d="M 9088.8,1977.6 V 1394.4 H 5409.6" /><g
         transform="scale(1.20663)"
         id="g118"><path
           id="path120"
           style="fill:#03bfbf;fill-opacity:1;fill-rule:nonzero;stroke:none"
           d="m 4821.38,16300 -338.13,-483.3 v 483.3" /></g><g
         transform="scale(1.20663)"
         id="g122"><path
           id="path124"
           style="fill:#03bfbf;fill-opacity:1;fill-rule:nonzero;stroke:none"
           d="m 4821.38,16300 v -483.3 h -338.13" /></g><g
         transform="scale(1.20663)"
         id="g126"><path
           id="path128"
           style="fill:none;stroke:#03bfbf;stroke-width:1.98901999;stroke-linecap:round;stroke-linejoin:round;stroke-miterlimit:10;stroke-dasharray:none;stroke-opacity:1"
           d="m 4821.38,15816.7 h -338.13 v 483.3 h 338.13" /></g><g
         transform="scale(1.20663)"
         id="g130"><path
           id="path132"
           style="fill:none;stroke:#03bfbf;stroke-width:1.98901999;stroke-linecap:round;stroke-linejoin:round;stroke-miterlimit:10;stroke-dasharray:none;stroke-opacity:1"
           d="M 5026.25,16300 H 7035.16" /></g><g
         transform="scale(1.20663)"
         id="g134"><path
           id="path136"
           style="fill:none;stroke:#03bfbf;stroke-width:1.98901999;stroke-linecap:round;stroke-linejoin:round;stroke-miterlimit:10;stroke-dasharray:none;stroke-opacity:1"
           d="m 7240.02,16300 h 775.72 v -483.3" /></g><path
         id="path138"
         style="fill:none;stroke:#03bfbf;stroke-width:2.4000001;stroke-linecap:round;stroke-linejoin:round;stroke-miterlimit:10;stroke-dasharray:none;stroke-opacity:1"
         d="M 9672,1977.6 V 1394.4 H 5409.6 v 583.2 h 3679.2" /><g
         transform="scale(1.20663)"
         id="g140"><path
           id="path142"
           style="fill:none;stroke:#03bfbf;stroke-width:1.98901999;stroke-linecap:round;stroke-linejoin:round;stroke-miterlimit:10;stroke-dasharray:none;stroke-opacity:1"
           d="m 7532.41,16300 h 483.33 V 1155.62 h -483.33" /></g><g
         transform="scale(1.17085)"
         id="g144"><path
           id="path146"
           style="fill:none;stroke:#03bfbf;stroke-width:6.40560293;stroke-linecap:butt;stroke-linejoin:miter;stroke-miterlimit:10;stroke-dasharray:none;stroke-opacity:1"
           d="M 7762.59,1689.04 V 16300" /></g><g
         transform="scale(1.2424)"
         id="g148"><path
           id="path150"
           style="fill:none;stroke:#03bfbf;stroke-width:1.93174005;stroke-linecap:round;stroke-linejoin:round;stroke-miterlimit:10;stroke-dasharray:none;stroke-opacity:1"
           d="M 8489.99,650.996 H 8020.57 V 16300 h 469.42 z" /></g><g
         transform="scale(1.17085)"
         id="g152"><path
           id="path154"
           style="fill:none;stroke:#03bfbf;stroke-width:6.40560293;stroke-linecap:butt;stroke-linejoin:miter;stroke-miterlimit:10;stroke-dasharray:none;stroke-opacity:1"
           d="M 7762.59,16300 V 1689.04" /></g><g
         transform="scale(1.20663)"
         id="g156"><path
           id="path158"
           style="fill:none;stroke:#03bfbf;stroke-width:1.98901999;stroke-linecap:round;stroke-linejoin:round;stroke-miterlimit:10;stroke-dasharray:none;stroke-opacity:1"
           d="m 7532.41,16300 h 483.33" /></g><path
         id="path160"
         style="fill:none;stroke:#03bfbf;stroke-width:7.5;stroke-linecap:butt;stroke-linejoin:miter;stroke-miterlimit:10;stroke-dasharray:none;stroke-opacity:1"
         d="M 5409.6,1977.6 V 9220.8 H 9088.8" /><path
         id="path162"
         style="fill:none;stroke:#03bfbf;stroke-width:7.5;stroke-linecap:butt;stroke-linejoin:miter;stroke-miterlimit:10;stroke-dasharray:none;stroke-opacity:1"
         d="M 5556,1977.6 V 9074.4 H 9088.8" /><path
         id="path164"
         style="fill:none;stroke:#03bfbf;stroke-width:7.5;stroke-linecap:butt;stroke-linejoin:miter;stroke-miterlimit:10;stroke-dasharray:none;stroke-opacity:1"
         d="M 9672,9220.8 V 1977.6" /><path
         id="path166"
         style="fill:none;stroke:#03bfbf;stroke-width:2.4000001;stroke-linecap:round;stroke-linejoin:round;stroke-miterlimit:10;stroke-dasharray:none;stroke-opacity:1"
         d="m 7250.4,8594.4 v 626.4" /><path
         id="path168"
         style="fill:none;stroke:#03bfbf;stroke-width:2.4000001;stroke-linecap:round;stroke-linejoin:round;stroke-miterlimit:10;stroke-dasharray:none;stroke-opacity:1"
         d="m 7176,8594.4 v 626.4" /><path
         id="path170"
         style="fill:none;stroke:#03bfbf;stroke-width:2.4000001;stroke-linecap:round;stroke-linejoin:round;stroke-miterlimit:10;stroke-dasharray:none;stroke-opacity:1"
         d="m 7322.4,8594.4 v 626.4" /><path
         id="path172"
         style="fill:#03bfbf;fill-opacity:1;fill-rule:nonzero;stroke:none"
         d="M 9088.8,9220.8 7322.4,9074.4 v 146.4" /><path
         id="path174"
         style="fill:#03bfbf;fill-opacity:1;fill-rule:nonzero;stroke:none"
         d="M 9088.8,9220.8 V 9074.4 H 7322.4" /><path
         id="path176"
         style="fill:#03bfbf;fill-opacity:1;fill-rule:nonzero;stroke:none"
         d="m 7322.4,2604 -72,-626.4 V 2604" /><path
         id="path178"
         style="fill:#03bfbf;fill-opacity:1;fill-rule:nonzero;stroke:none"
         d="m 7322.4,2604 v -626.4 h -72" /><path
         id="path180"
         style="fill:#03bfbf;fill-opacity:1;fill-rule:nonzero;stroke:none"
         d="m 7322.4,9074.4 -72,-480 v 480" /><path
         id="path182"
         style="fill:#03bfbf;fill-opacity:1;fill-rule:nonzero;stroke:none"
         d="m 7322.4,9074.4 v -480 h -72" /><path
         id="path184"
         style="fill:#03bfbf;fill-opacity:1;fill-rule:nonzero;stroke:none"
         d="m 7322.4,9220.8 -72,-146.4 v 146.4" /><path
         id="path186"
         style="fill:#03bfbf;fill-opacity:1;fill-rule:nonzero;stroke:none"
         d="m 7322.4,9220.8 v -146.4 h -72" /><path
         id="path188"
         style="fill:#03bfbf;fill-opacity:1;fill-rule:nonzero;stroke:none"
         d="M 7250.4,2604 7176,1977.6 V 2604" /><path
         id="path190"
         style="fill:#03bfbf;fill-opacity:1;fill-rule:nonzero;stroke:none"
         d="M 7250.4,2604 V 1977.6 H 7176" /><path
         id="path192"
         style="fill:#03bfbf;fill-opacity:1;fill-rule:nonzero;stroke:none"
         d="m 7250.4,9074.4 -74.4,-480 v 480" /><path
         id="path194"
         style="fill:#03bfbf;fill-opacity:1;fill-rule:nonzero;stroke:none"
         d="m 7250.4,9074.4 v -480 H 7176" /><path
         id="path196"
         style="fill:#03bfbf;fill-opacity:1;fill-rule:nonzero;stroke:none"
         d="M 7250.4,9220.8 7176,9074.4 v 146.4" /><path
         id="path198"
         style="fill:#03bfbf;fill-opacity:1;fill-rule:nonzero;stroke:none"
         d="M 7250.4,9220.8 V 9074.4 H 7176" /><path
         id="path200"
         style="fill:#03bfbf;fill-opacity:1;fill-rule:nonzero;stroke:none"
         d="M 5556,9074.4 5409.6,1977.6 v 7096.8" /><path
         id="path202"
         style="fill:#03bfbf;fill-opacity:1;fill-rule:nonzero;stroke:none"
         d="M 5556,9074.4 V 1977.6 h -146.4" /><path
         id="path204"
         style="fill:#03bfbf;fill-opacity:1;fill-rule:nonzero;stroke:none"
         d="M 7176,9220.8 5409.6,9074.4 v 146.4" /><path
         id="path206"
         style="fill:#03bfbf;fill-opacity:1;fill-rule:nonzero;stroke:none"
         d="M 7176,9220.8 V 9074.4 H 5409.6" /><path
         id="path208"
         style="fill:none;stroke:#03bfbf;stroke-width:2.4000001;stroke-linecap:round;stroke-linejoin:round;stroke-miterlimit:10;stroke-dasharray:none;stroke-opacity:1"
         d="M 7250.4,1977.6 V 2604" /><path
         id="path210"
         style="fill:none;stroke:#03bfbf;stroke-width:2.4000001;stroke-linecap:round;stroke-linejoin:round;stroke-miterlimit:10;stroke-dasharray:none;stroke-opacity:1"
         d="M 7176,1977.6 V 2604" /><path
         id="path212"
         style="fill:none;stroke:#03bfbf;stroke-width:2.4000001;stroke-linecap:round;stroke-linejoin:round;stroke-miterlimit:10;stroke-dasharray:none;stroke-opacity:1"
         d="M 7322.4,1977.6 V 2604" /><path
         id="path214"
         style="fill:none;stroke:#03bfbf;stroke-width:2.4000001;stroke-linecap:round;stroke-linejoin:round;stroke-miterlimit:10;stroke-dasharray:none;stroke-opacity:1"
         d="M 7250.4,9220.8 H 5409.6" /><path
         id="path216"
         style="fill:none;stroke:#03bfbf;stroke-width:2.4000001;stroke-linecap:round;stroke-linejoin:round;stroke-miterlimit:10;stroke-dasharray:none;stroke-opacity:1"
         d="M 7250.4,9074.4 H 5409.6" /><path
         id="path218"
         style="fill:none;stroke:#03bfbf;stroke-width:2.4000001;stroke-linecap:round;stroke-linejoin:round;stroke-miterlimit:10;stroke-dasharray:none;stroke-opacity:1"
         d="M 9088.8,9220.8 H 7250.4" /><path
         id="path220"
         style="fill:none;stroke:#03bfbf;stroke-width:2.4000001;stroke-linecap:round;stroke-linejoin:round;stroke-miterlimit:10;stroke-dasharray:none;stroke-opacity:1"
         d="M 9088.8,9074.4 H 7250.4" /><g
         transform="scale(1.2424)"
         id="g222"><path
           id="path224"
           style="fill:none;stroke:#03bfbf;stroke-width:1.93174005;stroke-linecap:round;stroke-linejoin:round;stroke-miterlimit:10;stroke-dasharray:none;stroke-opacity:1"
           d="M 8020.57,15830.6 V 16300" /></g><path
         id="path226"
         style="fill:none;stroke:#03bfbf;stroke-width:2.4000001;stroke-linecap:round;stroke-linejoin:round;stroke-miterlimit:10;stroke-dasharray:none;stroke-opacity:1"
         d="M 9964.8,808.801 V 1394.4" /><g
         transform="scale(1.20663)"
         id="g228"><path
           id="path230"
           style="fill:none;stroke:#03bfbf;stroke-width:1.98901999;stroke-linecap:round;stroke-linejoin:round;stroke-miterlimit:10;stroke-dasharray:none;stroke-opacity:1"
           d="m 7240.02,16300 v -483.3" /></g><g
         transform="scale(1.20663)"
         id="g232"><path
           id="path234"
           style="fill:none;stroke:#03bfbf;stroke-width:1.98901999;stroke-linecap:round;stroke-linejoin:round;stroke-miterlimit:10;stroke-dasharray:none;stroke-opacity:1"
           d="m 4821.38,16300 v -483.3" /></g><g
         transform="scale(1.20663)"
         id="g236"><path
           id="path238"
           style="fill:none;stroke:#03bfbf;stroke-width:1.98901999;stroke-linecap:round;stroke-linejoin:round;stroke-miterlimit:10;stroke-dasharray:none;stroke-opacity:1"
           d="m 7035.16,16300 v -483.3" /></g><g
         transform="scale(1.20663)"
         id="g240"><path
           id="path242"
           style="fill:none;stroke:#03bfbf;stroke-width:1.98901999;stroke-linecap:round;stroke-linejoin:round;stroke-miterlimit:10;stroke-dasharray:none;stroke-opacity:1"
           d="m 5026.25,16300 v -483.3" /></g><g
         transform="scale(1.20663)"
         id="g244"><path
           id="path246"
           style="fill:none;stroke:#03bfbf;stroke-width:1.98901999;stroke-linecap:round;stroke-linejoin:round;stroke-miterlimit:10;stroke-dasharray:none;stroke-opacity:1"
           d="m 4821.38,16300 v -483.3" /></g><path
         id="path248"
         style="fill:none;stroke:#03bfbf;stroke-width:2.4000001;stroke-linecap:round;stroke-linejoin:round;stroke-miterlimit:10;stroke-dasharray:none;stroke-opacity:1"
         d="m 7176,1977.6 h 146.398 v 626.398 H 7176 Z" /><path
         id="path250"
         style="fill:none;stroke:#03bfbf;stroke-width:2.4000001;stroke-linecap:round;stroke-linejoin:round;stroke-miterlimit:10;stroke-dasharray:none;stroke-opacity:1"
         d="m 7176,8594.4 h 146.398 v 480 H 7176 Z" /></g></g></svg>